<svg width="0" height="0" class="hidden">
  <!--main logo-->
  <symbol aria-hidden="true" focusable="false" role="img" xmlns="http://www.w3.org/2000/svg" viewBox="0 0 152.35 143.74" id="icon-logo">
    <g transform="translate(-32.882 -133.08)">
      <path d="m181.17 245.31-35.745 26.329c-4.6831 3.4634-10.478 5.3684-16.536 5.3684h-91.81c-2.3148 0-3.9952-1.9172-3.9952-4.2307v-25.397c0-2.3146 1.9182-4.2386 3.9952-4.2386l14.65 6e-3 12.303-9.9854c5.3181-4.2595 12.467-6.945 19.611-6.945h42.095c5.1594 0 9.226 4.5958 8.3661 9.8875-0.69453 4.1672-4.5958 7.0432-8.8292 7.0432h-20.463c-2.3148 0-3.9952 1.918-3.9952 3.9952 0 2.0772 1.9182 3.9952 3.9952 3.9952h31.909l31.671-23.328c4.7096-3.4898 11.327-2.4717 14.798 2.2402 3.6962 5.1803 2.6908 11.795-2.0188 15.261z"></path>
      <path d="m106 133.08a44.526 43.709 0 0 1 44.526 43.709 44.526 43.709 0 0 1-44.526 43.709 44.526 43.709 0 0 1-44.526-43.709 44.526 43.709 0 0 1 44.526-43.709m0 8.7418a11.131 10.927 0 0 0-11.131 10.927 11.131 10.927 0 0 0 11.131 10.927 11.131 10.927 0 0 0 11.131-10.927 11.131 10.927 0 0 0-11.131-10.927m-33.84 24.171c-1.9146 5.7259 1.2908 11.889 7.1241 13.769 5.8774 1.8357 12.156-1.2671 14.026-7.0372 1.9146-5.726-1.2908-11.889-7.1241-13.769-5.833-1.8357-12.155 1.2671-14.026 7.0372m67.724-0.13216c-1.9146-5.6385-8.1927-8.7418-14.025-6.9061-5.8774 1.8359-9.0832 7.9989-7.1686 13.769 1.9146 5.7259 8.1927 8.8729 14.025 6.9934 5.833-1.8357 9.0388-8.0425 7.1686-13.856m-54.767 39.164c4.9424 3.5842 11.977 2.4914 15.539-2.404 3.6067-4.8954 2.4935-11.714-2.4933-15.255-4.9424-3.5404-11.933-2.4476-15.54 2.404-3.6065 4.8956-2.4935 11.714 2.4935 15.255m41.81 0c4.9868-3.5404 6.0999-10.359 2.4933-15.255-3.6066-4.8954-10.597-5.9882-15.539-2.404-4.987 3.5406-6.1 10.359-2.4935 15.255 3.5175 4.8954 10.597 5.9444 15.54 2.404m-20.927-34.793a6.6789 6.5564 0 0 0-6.6788 6.5563 6.6789 6.5564 0 0 0 6.6788 6.5565 6.6789 6.5564 0 0 0 6.6789-6.5565 6.6789 6.5564 0 0 0-6.6789-6.5563z"></path>
    </g>
  </symbol>

<!--theme switcher icon-->
  <symbol aria-hidden="true" focusable="false" role="img" xmlns="http://www.w3.org/2000/svg" viewBox="0 0 512 512" id="icon-theme-switcher">
    <path d="M256 0C114.6 0 0 114.6 0 256s114.6 256 256 256s256-114.6 256-256S397.4 0 256 0zM256 448V64c105.9 0 192 86.13 192 192S361.9 448 256 448z"></path>
  </symbol>

<!--miscellaneous logos-->
  <symbol aria-hidden="true" focusable="false" role="img" xmlns="http://www.w3.org/2000/svg" viewBox="0 0 512 512" id="icon-cancel">
    <path d="M256 0C114.6 0 0 114.6 0 256s114.6 256 256 256s256-114.6 256-256S397.4 0 256 0zM64 256c0-41.4 13.3-79.68 35.68-111.1l267.4 267.4C335.7 434.7 297.4 448 256 448C150.1 448 64 361.9 64 256zM412.3 367.1L144.9 99.68C176.3 77.3 214.6 64 256 64c105.9 0 192 86.13 192 192C448 297.4 434.7 335.7 412.3 367.1z"></path>
  </symbol>
  <symbol aria-hidden="true" focusable="false" role="img" xmlns="http://www.w3.org/2000/svg" viewBox="0 0 384 512" id="icon-code-document">
    <path d="M162.1 257.8c-7.812-7.812-20.47-7.812-28.28 0l-48 48c-7.812 7.812-7.812 20.5 0 28.31l48 48C137.8 386.1 142.9 388 148 388s10.23-1.938 14.14-5.844c7.812-7.812 7.812-20.5 0-28.31L128.3 320l33.86-33.84C169.1 278.3 169.1 265.7 162.1 257.8zM365.3 93.38l-74.63-74.64C278.6 6.742 262.3 0 245.4 0H64C28.65 0 0 28.65 0 64l.0065 384c0 35.34 28.65 64 64 64H320c35.2 0 64-28.8 64-64V138.6C384 121.7 377.3 105.4 365.3 93.38zM336 448c0 8.836-7.164 16-16 16H64.02c-8.838 0-16-7.164-16-16L48 64.13c0-8.836 7.164-16 16-16h160L224 128c0 17.67 14.33 32 32 32h79.1V448zM221.9 257.8c-7.812 7.812-7.812 20.5 0 28.31L255.7 320l-33.86 33.84c-7.812 7.812-7.812 20.5 0 28.31C225.8 386.1 230.9 388 236 388s10.23-1.938 14.14-5.844l48-48c7.812-7.812 7.812-20.5 0-28.31l-48-48C242.3 250 229.7 250 221.9 257.8z"></path>
  </symbol>
  <symbol aria-hidden="true" focusable="false" role="img" xmlns="http://www.w3.org/2000/svg" viewBox="0 0 640 512" id="icon-computer-home">
    <path d="M218.3 8.486C230.6-2.829 249.4-2.829 261.7 8.486L469.7 200.5C476.4 206.7 480 215.2 480 224H336C316.9 224 299.7 232.4 288 245.7V208C288 199.2 280.8 192 272 192H208C199.2 192 192 199.2 192 208V272C192 280.8 199.2 288 208 288H271.1V416H112C85.49 416 64 394.5 64 368V256H32C18.83 256 6.996 247.9 2.198 235.7C-2.6 223.4 .6145 209.4 10.3 200.5L218.3 8.486zM336 256H560C577.7 256 592 270.3 592 288V448H624C632.8 448 640 455.2 640 464C640 490.5 618.5 512 592 512H303.1C277.5 512 255.1 490.5 255.1 464C255.1 455.2 263.2 448 271.1 448H303.1V288C303.1 270.3 318.3 256 336 256zM352 304V448H544V304H352z"></path>
  </symbol>
  <symbol aria-hidden="true" focusable="false" role="img" xmlns="http://www.w3.org/2000/svg" viewBox="0 0 640 512" id="icon-link-slash">
    <path d="M485.1 354.9l113.5-113.5c55.21-55.21 55.21-144.7 0-199.9C570.1 13.8 534.8 0 498.6 0s-72.36 13.8-99.96 41.41l-43.36 43.36c15.11 8.012 29.47 17.58 41.91 30.02c3.146 3.146 5.898 6.518 8.742 9.838l37.96-37.96C458.5 72.05 477.1 64 498.6 64s40.1 8.047 54.71 22.66c14.61 14.61 22.66 34.04 22.66 54.71s-8.049 40.1-22.66 54.71l-119 119l-30.09-23.59c21.49-51.28 12.12-112.4-29.63-154.1C346.1 109.8 310.8 96 274.6 96c-29.6 0-58.93 9.752-83.83 28.23L38.81 5.109C34.41 1.672 29.19 0 24.03 0c-7.125 0-14.19 3.156-18.91 9.187c-8.188 10.44-6.375 25.53 4.062 33.7l591.1 463.1c10.5 8.203 25.56 6.328 33.69-4.078c8.188-10.44 6.375-25.53-4.062-33.7L485.1 354.9zM350.8 249.6L244.3 166.2C253.8 162.2 264 160 274.6 160c20.67 0 40.1 8.049 54.71 22.66c14.62 14.61 22.66 34.04 22.66 54.71C352 241.5 351.4 245.6 350.8 249.6zM234 387.4l-37.96 37.96C181.5 439.1 162 448 141.4 448c-20.67 0-40.1-8.047-54.71-22.66c-14.61-14.61-22.66-34.04-22.66-54.71s8.049-40.1 22.66-54.71l84.83-84.83L120.7 191.3L41.41 270.7c-55.21 55.21-55.21 144.7 0 199.9C69.01 498.2 105.2 512 141.4 512c36.18 0 72.36-13.8 99.96-41.41l43.36-43.36c-15.11-8.012-29.47-17.58-41.91-30.02C239.6 394.1 236.9 390.7 234 387.4zM265.4 374.6C293 402.2 329.2 416 365.4 416c11.98 0 23.84-2.082 35.51-5.111L224.6 272.7C223.9 309.5 237.3 346.5 265.4 374.6z"></path>
  </symbol>
  <symbol aria-hidden="true" focusable="false" role="img" xmlns="http://www.w3.org/2000/svg" viewBox="0 0 640 512" id="icon-eye-slash">
    <path d="M320 400c-75.85 0-137.25-58.71-142.9-133.11L72.2 185.82c-13.79 17.3-26.48 35.59-36.72 55.59a32.35 32.35 0 0 0 0 29.19C89.71 376.41 197.07 448 320 448c26.91 0 52.87-4 77.89-10.46L346 397.39a144.13 144.13 0 0 1-26 2.61zm313.82 58.1l-110.55-85.44a331.25 331.25 0 0 0 81.25-102.07 32.35 32.35 0 0 0 0-29.19C550.29 135.59 442.93 64 320 64a308.15 308.15 0 0 0-147.32 37.7L45.46 3.37A16 16 0 0 0 23 6.18L3.37 31.45A16 16 0 0 0 6.18 53.9l588.36 454.73a16 16 0 0 0 22.46-2.81l19.64-25.27a16 16 0 0 0-2.82-22.45zm-183.72-142l-39.3-30.38A94.75 94.75 0 0 0 416 256a94.76 94.76 0 0 0-121.31-92.21A47.65 47.65 0 0 1 304 192a46.64 46.64 0 0 1-1.54 10l-73.61-56.89A142.31 142.31 0 0 1 320 112a143.92 143.92 0 0 1 144 144c0 21.63-5.29 41.79-13.9 60.11z"></path>
  </symbol>
  <symbol aria-hidden="true" focusable="false" role="img" xmlns="http://www.w3.org/2000/svg" viewBox="0 0 512 512" id="icon-feather">
    <path d="M483.4 244.2L351.9 287.1h97.74c-9.874 10.62 3.75-3.125-46.24 46.87l-147.6 49.12h98.24c-74.99 73.12-194.6 70.62-246.8 54.1l-66.14 65.99c-9.374 9.374-24.6 9.374-33.98 0s-9.374-24.6 0-33.98l259.5-259.2c6.249-6.25 6.249-16.37 0-22.62c-6.249-6.249-16.37-6.249-22.62 0l-178.4 178.2C58.78 306.1 68.61 216.7 129.1 156.3l85.74-85.68c90.62-90.62 189.8-88.27 252.3-25.78C517.8 95.34 528.9 169.7 483.4 244.2z"></path>
  </symbol>
  <symbol aria-hidden="true" focusable="false" role="img" xmlns="http://www.w3.org/2000/svg" viewBox="0 0 512 512" id="icon-fast-forward">
    <path d="M52.51 440.6l171.5-142.9V214.3L52.51 71.41C31.88 54.28 0 68.66 0 96.03v319.9C0 443.3 31.88 457.7 52.51 440.6zM308.5 440.6l192-159.1c15.25-12.87 15.25-36.37 0-49.24l-192-159.1c-20.63-17.12-52.51-2.749-52.51 24.62v319.9C256 443.3 287.9 457.7 308.5 440.6z"></path>
  </symbol>
  <symbol aria-hidden="true" focusable="false" role="img" xmlns="http://www.w3.org/2000/svg" viewBox="0 0 512 512" id="icon-graph-rising">
    <path d="M472 432h-48a24 24 0 01-24-24V104a24 24 0 0124-24h48a24 24 0 0124 24v304a24 24 0 01-24 24zM344 432h-48a24 24 0 01-24-24V184a24 24 0 0124-24h48a24 24 0 0124 24v224a24 24 0 01-24 24zM216 432h-48a24 24 0 01-24-24V248a24 24 0 0124-24h48a24 24 0 0124 24v160a24 24 0 01-24 24zM88 432H40a24 24 0 01-24-24v-96a24 24 0 0124-24h48a24 24 0 0124 24v96a24 24 0 01-24 24z"></path>
  </symbol>
  <symbol aria-hidden="true" focusable="false" role="img" xmlns="http://www.w3.org/2000/svg" viewBox="0 0 576 512" id="icon-rating">
    <path d="M259.3 17.8L194 150.2 47.9 171.5c-26.2 3.8-36.7 36.1-17.7 54.6l105.7 103-25 145.5c-4.5 26.3 23.2 46 46.4 33.7L288 439.6l130.7 68.7c23.2 12.2 50.9-7.4 46.4-33.7l-25-145.5 105.7-103c19-18.5 8.5-50.8-17.7-54.6L382 150.2 316.7 17.8c-11.7-23.6-45.6-23.9-57.4 0z"></path>
  </symbol>
  <symbol aria-hidden="true" focusable="false" role="img" xmlns="http://www.w3.org/2000/svg" viewBox="0 0 512 512" id="icon-rewind">
    <path d="M459.5 71.41l-171.5 142.9v83.45l171.5 142.9C480.1 457.7 512 443.3 512 415.1V96.03C512 68.66 480.1 54.28 459.5 71.41zM203.5 71.41L11.44 231.4c-15.25 12.87-15.25 36.37 0 49.24l192 159.1c20.63 17.12 52.51 2.749 52.51-24.62v-319.9C255.1 68.66 224.1 54.28 203.5 71.41z"></path>
  </symbol>
  <symbol aria-hidden="true" focusable="false" role="img" xmlns="http://www.w3.org/2000/svg" viewBox="0 0 24 24" id="icon-like-dislike">
    <path d="M22.5,10H15.75C15.13,10 14.6,10.38 14.37,10.91L12.11,16.2C12.04,16.37 12,16.56 12,16.75V18A1,1 0 0,0 13,19H18.18L17.5,22.18V22.42C17.5,22.73 17.63,23 17.83,23.22L18.62,24L23.56,19.06C23.83,18.79 24,18.41 24,18V11.5A1.5,1.5 0 0,0 22.5,10M12,6A1,1 0 0,0 11,5H5.82L6.5,1.82V1.59C6.5,1.28 6.37,1 6.17,0.79L5.38,0L0.44,4.94C0.17,5.21 0,5.59 0,6V12.5A1.5,1.5 0 0,0 1.5,14H8.25C8.87,14 9.4,13.62 9.63,13.09L11.89,7.8C11.96,7.63 12,7.44 12,7.25V6Z"></path>
  </symbol>
  <symbol aria-hidden="true" focusable="false" role="img" xmlns="http://www.w3.org/2000/svg" viewBox="0 0 640 512" id="icon-person-slash">
    <path d="M95.1 477.3c0 19.14 15.52 34.67 34.66 34.67h378.7c5.625 0 10.73-1.65 15.42-4.029L264.9 304.3C171.3 306.7 95.1 383.1 95.1 477.3zM630.8 469.1l-277.1-217.9c54.69-14.56 95.18-63.95 95.18-123.2C447.1 57.31 390.7 0 319.1 0C250.2 0 193.7 55.93 192.3 125.4l-153.4-120.3C34.41 1.672 29.19 0 24.03 0C16.91 0 9.845 3.156 5.127 9.187c-8.187 10.44-6.375 25.53 4.062 33.7L601.2 506.9c10.5 8.203 25.56 6.328 33.69-4.078C643.1 492.4 641.2 477.3 630.8 469.1z"></path>
  </symbol>
  <symbol aria-hidden="true" focusable="false" role="img" xmlns="http://www.w3.org/2000/svg"  viewBox="0 0 24 24" id="icon-image-slash">
    <path d="M21 17.2L6.8 3H19C20.1 3 21 3.9 21 5V17.2M20.7 22L19.7 21H5C3.9 21 3 20.1 3 19V4.3L2 3.3L3.3 2L22 20.7L20.7 22M16.8 18L12.9 14.1L11 16.5L8.5 13.5L5 18H16.8Z"></path>
  </symbol>
  <symbol aria-hidden="true" focusable="false" role="img" xmlns="http://www.w3.org/2000/svg"  viewBox="0 0 24 24" id="icon-palette">
    <path d="M2.53,19.65L3.87,20.21V11.18L1.44,17.04C1.03,18.06 1.5,19.23 2.53,19.65M22.03,15.95L17.07,4C16.76,3.23 16.03,2.77 15.26,2.75C15,2.75 14.73,2.79 14.47,2.9L7.1,5.95C6.35,6.26 5.89,7 5.87,7.75C5.86,8 5.91,8.29 6,8.55L11,20.5C11.29,21.28 12.03,21.74 12.81,21.75C13.07,21.75 13.33,21.7 13.58,21.6L20.94,18.55C21.96,18.13 22.45,16.96 22.03,15.95M7.88,8.75A1,1 0 0,1 6.88,7.75A1,1 0 0,1 7.88,6.75C8.43,6.75 8.88,7.2 8.88,7.75C8.88,8.3 8.43,8.75 7.88,8.75M5.88,19.75A2,2 0 0,0 7.88,21.75H9.33L5.88,13.41V19.75Z"></path>
  </symbol>
  <symbol aria-hidden="true" focusable="false" role="img" xmlns="http://www.w3.org/2000/svg"  viewBox="0 0 24 24" id="icon-responsive">
    <path d="M4,6V16H9V12A2,2 0 0,1 11,10H16A2,2 0 0,1 18,12V16H20V6H4M0,20V18H4A2,2 0 0,1 2,16V6A2,2 0 0,1 4,4H20A2,2 0 0,1 22,6V16A2,2 0 0,1 20,18H24V20H18V20C18,21.11 17.1,22 16,22H11A2,2 0 0,1 9,20H9L0,20M11.5,20A0.5,0.5 0 0,0 11,20.5A0.5,0.5 0 0,0 11.5,21A0.5,0.5 0 0,0 12,20.5A0.5,0.5 0 0,0 11.5,20M15.5,20A0.5,0.5 0 0,0 15,20.5A0.5,0.5 0 0,0 15.5,21A0.5,0.5 0 0,0 16,20.5A0.5,0.5 0 0,0 15.5,20M13,20V21H14V20H13M11,12V19H16V12H11Z"></path>
  </symbol>
  <symbol aria-hidden="true" focusable="false" role="img" xmlns="http://www.w3.org/2000/svg"  viewBox="0 0 24 24" id="icon-legal">
    <path d="M12,3C10.73,3 9.6,3.8 9.18,5H3V7H4.95L2,14C1.53,16 3,17 5.5,17C8,17 9.56,16 9,14L6.05,7H9.17C9.5,7.85 10.15,8.5 11,8.83V20H2V22H22V20H13V8.82C13.85,8.5 14.5,7.85 14.82,7H17.95L15,14C14.53,16 16,17 18.5,17C21,17 22.56,16 22,14L19.05,7H21V5H14.83C14.4,3.8 13.27,3 12,3M12,5A1,1 0 0,1 13,6A1,1 0 0,1 12,7A1,1 0 0,1 11,6A1,1 0 0,1 12,5M5.5,10.25L7,14H4L5.5,10.25M18.5,10.25L20,14H17L18.5,10.25Z"></path>
  </symbol>
  <symbol aria-hidden="true" focusable="false" role="img" xmlns="http://www.w3.org/2000/svg"  viewBox="0 0 24 24" id="icon-code-block">
    <path d="M5,3H7V5H5V10A2,2 0 0,1 3,12A2,2 0 0,1 5,14V19H7V21H5C3.93,20.73 3,20.1 3,19V15A2,2 0 0,0 1,13H0V11H1A2,2 0 0,0 3,9V5A2,2 0 0,1 5,3M19,3A2,2 0 0,1 21,5V9A2,2 0 0,0 23,11H24V13H23A2,2 0 0,0 21,15V19A2,2 0 0,1 19,21H17V19H19V14A2,2 0 0,1 21,12A2,2 0 0,1 19,10V5H17V3H19M12,15A1,1 0 0,1 13,16A1,1 0 0,1 12,17A1,1 0 0,1 11,16A1,1 0 0,1 12,15M8,15A1,1 0 0,1 9,16A1,1 0 0,1 8,17A1,1 0 0,1 7,16A1,1 0 0,1 8,15M16,15A1,1 0 0,1 17,16A1,1 0 0,1 16,17A1,1 0 0,1 15,16A1,1 0 0,1 16,15Z"></path>
  </symbol>
  <symbol aria-hidden="true" focusable="false" role="img" xmlns="http://www.w3.org/2000/svg"  viewBox="0 0 24 24" id="icon-ads-slash">
    <path d="M12.2 9L10.2 7H13C14.1 7 15 7.9 15 9V11.8L13 9.8V9H12.2M23 9V7H19C17.9 7 17 7.9 17 9V11C17 12.1 17.9 13 19 13H21V15H18.2L20.2 17H21C22.1 17 23 16.1 23 15V13C23 11.9 22.1 11 21 11H19V9H23M22.1 21.5L20.8 22.8L14.4 16.4C14.1 16.7 13.6 17 13 17H9V10.9L7 8.9V17H5V13H3V17H1V9C1 7.9 1.9 7 3 7H5.1L1.1 3L2.4 1.7L22.1 21.5M5 9H3V11H5V9M13 14.9L11 12.9V15H13V14.9Z"></path>
  </symbol>
</svg>