<?xml version="1.0" standalone="no"?>
<!DOCTYPE svg PUBLIC "-//W3C//DTD SVG 20010904//EN"
 "http://www.w3.org/TR/2001/REC-SVG-20010904/DTD/svg10.dtd">
<svg version="1.0" xmlns="http://www.w3.org/2000/svg"
 width="576.000000pt" height="576.000000pt" viewBox="0 0 576.000000 576.000000"
 preserveAspectRatio="xMidYMid meet">
<metadata>
Created by potrace 1.14, written by Peter Selinger 2001-2017
</metadata>
<g transform="translate(0.000000,576.000000) scale(0.100000,-0.100000)"
fill="#000000" stroke="none">
<path d="M2600 5594 c-14 -3 -70 -11 -125 -20 -96 -15 -228 -49 -290 -75 -16
-7 -36 -13 -42 -15 -25 -5 -204 -95 -270 -135 -176 -108 -350 -269 -481 -444
-138 -184 -256 -466 -288 -685 -15 -109 -19 -164 -18 -300 1 -139 7 -189 39
-355 3 -16 22 -77 41 -135 151 -452 499 -823 944 -1007 93 -39 232 -84 238
-78 3 2 12 0 21 -4 9 -5 32 -12 51 -15 65 -11 95 -16 130 -22 55 -11 317 -12
395 -3 115 14 143 19 223 40 42 11 84 22 92 24 69 16 330 129 338 148 2 4 8 7
14 7 15 0 109 63 204 136 234 181 421 436 528 720 14 39 28 80 31 92 2 11 9
30 15 41 6 12 9 21 6 21 -3 0 0 15 5 33 5 17 12 46 15 62 2 17 7 37 9 45 17
65 25 344 12 460 -11 101 -25 172 -43 227 -7 23 -15 52 -18 65 -2 13 -15 52
-29 88 -110 289 -279 522 -519 718 -42 34 -81 62 -87 62 -6 0 -11 4 -11 9 0 5
-9 13 -20 16 -11 3 -26 13 -34 20 -28 28 -266 145 -326 160 -3 1 -18 7 -35 14
-16 7 -73 23 -125 36 -87 22 -121 29 -205 41 -41 7 -354 13 -385 8z m255 -336
c28 -6 77 -24 109 -41 184 -97 268 -320 192 -509 -111 -275 -463 -352 -681
-150 -42 39 -95 113 -100 141 -2 9 -4 17 -4 19 -1 1 -1 5 -2 10 0 4 -5 12 -10
18 -14 17 -18 125 -7 184 5 30 23 79 39 111 29 59 121 159 145 159 8 0 14 3
14 8 0 8 74 40 109 47 13 2 26 6 28 8 8 9 120 6 168 -5z m-932 -622 c2 3 24 0
48 -6 24 -6 52 -13 62 -15 49 -11 155 -94 202 -157 34 -46 67 -149 70 -223 4
-78 -40 -213 -84 -256 -9 -10 -29 -31 -45 -48 -98 -108 -298 -147 -446 -87
-105 43 -173 104 -220 201 -125 253 32 549 312 590 24 4 45 8 47 10 1 2 13 0
26 -5 13 -5 25 -7 28 -4z m1769 -1 c211 -16 381 -206 372 -415 -2 -30 -5 -65
-8 -77 -3 -13 -8 -31 -10 -41 -15 -68 -116 -191 -189 -231 -119 -66 -268 -72
-391 -16 -93 42 -161 110 -203 201 -39 87 -47 160 -28 258 34 164 171 293 340
320 21 4 41 9 43 11 3 2 8 2 13 -1 4 -2 32 -6 61 -9z m-834 -458 c7 -2 18 -9
24 -15 7 -7 17 -12 24 -12 7 0 28 -19 48 -41 128 -150 41 -383 -152 -406 -26
-3 -49 -6 -52 -6 -13 -2 -78 17 -103 30 -174 88 -176 346 -4 435 66 34 115 38
215 15z m-548 -562 c90 -14 231 -113 270 -191 8 -16 21 -37 29 -46 8 -10 11
-18 7 -18 -4 0 -2 -8 3 -18 9 -17 24 -101 24 -127 -3 -84 -37 -194 -72 -237
-120 -144 -256 -200 -421 -174 -118 19 -241 107 -297 213 -37 68 -44 95 -48
180 -6 116 34 220 117 302 50 50 151 107 200 113 15 2 29 6 32 9 6 6 104 2
156 -6z m1095 1 c16 -3 59 -20 94 -37 146 -72 234 -219 226 -378 -4 -92 -4
-92 -37 -163 -145 -313 -608 -318 -754 -8 -39 81 -42 96 -42 181 0 71 4 96 29
154 27 65 77 130 137 177 84 67 225 97 347 74z"/>
<path d="M5282 2084 c-74 -15 -167 -64 -228 -119 -6 -5 -22 -18 -35 -28 -85
-62 -248 -181 -266 -195 -12 -9 -32 -25 -45 -34 -13 -9 -95 -70 -183 -134 -88
-65 -162 -120 -165 -123 -3 -4 -23 -18 -45 -33 -22 -14 -51 -35 -65 -47 -14
-11 -93 -69 -175 -130 l-151 -110 -625 2 -626 2 -36 28 c-45 34 -67 74 -67
122 0 60 45 123 100 140 14 5 219 9 455 10 237 2 439 5 450 8 92 24 176 88
220 168 27 49 30 63 30 144 -1 77 -5 97 -27 140 -34 65 -107 132 -171 158 -51
20 -70 20 -915 21 -953 1 -978 0 -1158 -60 -120 -40 -302 -135 -360 -189 -6
-5 -28 -23 -49 -40 -21 -16 -80 -64 -130 -105 -50 -41 -109 -88 -130 -105 -21
-16 -43 -34 -49 -40 -6 -5 -36 -31 -67 -56 l-57 -45 -283 0 c-198 1 -293 -2
-318 -11 -46 -16 -89 -65 -97 -112 -10 -49 -9 -1014 0 -1029 4 -7 4 -12 1 -12
-3 0 4 -18 16 -39 44 -79 -136 -72 1939 -69 1020 2 1864 6 1875 10 11 3 40 11
65 18 70 19 200 72 200 82 0 5 4 7 9 4 9 -6 103 55 246 161 55 41 111 82 123
91 13 9 42 31 65 48 37 28 339 250 392 288 11 8 69 51 128 95 59 45 110 81
113 81 2 0 13 8 23 18 10 9 44 35 75 57 31 22 74 54 95 70 22 17 84 63 138
102 130 95 175 141 210 211 26 53 28 66 28 177 0 115 -1 123 -32 185 -85 173
-259 261 -441 224z"/>
</g>
</svg>
