<?xml version="1.0" encoding="UTF-8"?>

<!--
original image from https://www.gnu.org/graphics/sventsitsky-sadgnu.html.
adapted to svg format with inkscape.
licensed under CC BY-SA 4.0
see https://creativecommons.org/licenses/by-sa/4.0/ for more.
-->

<svg version="1.1">
  <symbol viewBox="0 0 512 496" id="sad-gnu"  xmlns="http://www.w3.org/2000/svg">
    <g transform="translate(-311 -329)">
      <path
        d="m487 351h0.553l0.553-1.66h0.553c-0.567 3.84-3.06 7.23-3.29 11.1-0.757 12.5 8.64 23.2 21 25.4-6.37 9.04-19.3 15.2-22.1 26.5h0.553c3.4-7.87 10.2-13.5 16.6-18.9 2.28-1.95 4.91-5.23 7.74-6.31 2.16-0.823 5.43-0.173 7.74-0.173v-0.553c-3.75-0.0102-9.32-0.101-12.2-2.76 4.48 1.07 11 1.87 15.5 0.553v-0.553l-12.2-1.11v-0.553l3.87 0.553v-0.553c-4.11-0.858-15.7-3.85-13.8-9.95v-0.553l-1.66 0.553 0.553-1.66-3.32-2.76 1.11 3.32h-0.553l-3.32-5.53-0.553 4.97h0.553v-1.66h0.553l6.08 9.95c-18.6-11-9.24-35.2 6.08-45.3 3.01-1.98 6.54-2.42 9.95-3.38-10.3-4.31-24.5 12.3-26.5 21m10.5-0.553h0.553l1.11-2.76h0.553l-0.553 5.53h0.553l1.11-6.08-1.11 0.553v-0.553l1.66-1.11c0.964-4.21 3.69-7.97 6.63-11.1v1.66h0.553l4.42-5.53c-7.55 2.39-14.8 11.4-15.5 19.3m11.1-16-0.553 0.553 0.553-0.553m112 1.11v0.553c5.51-0.197 8.58 12.2 11.1 15.5-1.93 0.329-0.633 3.57 0.553 4.42l-0.553-4.42c5.06 11.8 0.157 22.8-8.84 30.9-2.99 2.69-8.33 4.65-10.5 7.83 14.8-3.06 25.5-20.6 21.8-35.4-1.41-5.5-5.73-21.1-13.5-19.3m-1.11 1.11c1.16 3.71 4.26 6.61 4.86 10.5 1.28 8.39-6.55 24.9-15.9 25.4 1.75 3.02 6.46 3.87 8.29 0.553l-6.08 0.553v-0.553c6.26-1.84 12.4-8.84 12.7-15.5 2.29-0.312 2.17-3.54 2.42-5.52 0.6-4.92-1.65-13.1-6.28-15.5m11.6 12.7-0.553 0.553 0.553-0.553m-134 3.32 0.553 0.553-0.553-0.553m128 2.21-0.553 2.21h-0.553l1.11-2.21m7.74 2.76 1.11 2.76-1.11-2.76m-131 2.76c1.03 5.72 5.35 9.27 11.1 9.4v-0.553c-5.37-1.75-7.49-4.76-11.1-8.84m61.3 2.21v0.553c2.05 0 3.72-0.494 3.32 1.11l1.66-0.553 3.87 2.76c0-1.8 1.99-0.28 3.32 0-2.1-3.53-8.36-3.84-12.2-3.87m8.29 11.1h0.553l2.76-3.87-0.553 1.66 0.553-1.66v-0.553l13.8-3.74 8.29 2.64-0.553-1.11h0.553l11.6 7.18c-5.31-10.2-19.7-13.5-29.3-8.29-3.78 2.04-7.58 2.86-7.74 7.74m-45.3-7.18-7.18 6.08v0.553l13.5-5.09 9.71 2.33-1.11-1.66 4.97 0.553-2.21-2.21v-0.553h2.21l-1.66-2.76-18.2 2.76m28.2-2.21 0.553 0.553-0.553-0.553m7.18 0 6.08 4.42-6.08-4.42m9.95 0.553-0.553 0.553 0.553-0.553m-14.9 0.553 3.32 2.21v-0.553l-3.32-1.66m-55.3 0.553 1.11 1.11-1.11-1.11m-11.1 0.553v1.66h0.553l-0.553-1.66m106 0-0.553 0.553 0.553-0.553m-45.9 0.553v0.553l10.5 1.66-10.5-2.21m-3.87 1.11v0.553l3.87 2.76-1.66-0.553 9.95 12.2c2.6-6.67-6.02-14.8-12.2-14.9m-32.6 1.11v0.553l3.32-0.553h-3.32m3.87-0.553v0.553h2.76l-2.76-0.553m61.3 0-1.66 2.76 1.66-2.76m-75.2 0.553 0.553 0.553-0.553-0.553m43.1 1.11 0.553 0.553-0.553-0.553m-51.4 0.553 1.11 3.32h-0.553l-0.553-3.32m76.3 3.87-0.553 2.21h0.553v-2.21m-73.5 1.66 2.76 3.87c-1.67-0.858-2.93-1.89-2.76-3.87m-4.97 0.553 11.1 6.63v0.553c-3.28-0.944-10.1-3.63-11.1-7.18m9.4 2.76 4.42 2.21v0.553c-1.7-0.446-4.47-0.645-4.42-2.76m65.2 0 6.08 11.6 6.08 4.97 12.2 1.11v-0.553c-4.86-0.103-9.15-1.97-13.3-4.42v-0.553l1.11-1.11c-3.32-1.92-8.32-6.21-9.4-9.95l-2.76-1.11m-11.1 2.76 0.553 0.553-0.553-0.553m68.5 0-8.29 6.08 8.29-6.08m-37 9.95v0.553l5.53 0.553-0.553 2.76c2.49-1.57 1.88-4.36 3.39-6.61 1.66-2.47 6.49-4.49 9.33-5-6.26-4.66-11.3 7.71-17.7 7.74m-29.3-7.74c-2.93 5.27-7.5 8.83-13.3 10.5v0.553c4.54-0.208 15.3-5.24 13.3-11.1m-26 2.21 0.553 0.553-0.553-0.553m1.66 1.11 0.553 0.553-0.553-0.553m33.7 0.553 1.66 11.1h0.553l-2.21-11.1m43.1 0-12.2 1.11v1.11l11.6 0.553 0.553-2.76m-73 8.84-4.97-1.66 0.553-1.66-2.76-1.11 0.553 1.66c-2.34-1.31-3.79-2.08-3.32-4.97l2.76 1.66c-1.76-3.16-5.34-0.896-5.19 2.29 0.145 3.04 10.8 5.52 12.4 3.79m26.5-8.29 1.66 15.5h0.553l-2.21-15.5m-57.5 1.66v0.553l2.21-0.553h-2.21m-1.11 0.553-9.4 8.29 9.95-7.74-0.553-0.553m68 0.553 1.11 4.97h0.553l-1.66-4.97m23.8 0 0.553 0.553-0.553-0.553m-16.2 0.737 0.368 0.185-0.368-0.185m1.29-0.184 3.32 1.66v-0.553l-3.32-1.11m-55.8 0.553 0.553 1.66-0.553-1.66m78.5 0c-2.97 1.12-10.5 4.38-4.42 7.74l0.261-4.84 4.16-2.9m-18.2 0.553 0.553 0.553-0.553-0.553m12.2 0v1.11h1.11v-1.11h-1.11m-7.74 0.553-2.21 0.553v1.11l2.21-1.66m-63 0.553-0.553 0.553 0.553-0.553m9.95 0 0.553 0.553-0.553-0.553m-5.53 3.32 0.553 0.553-0.553-0.553m-31.5 1.11 0.553 0.553-0.553-0.553m94 0 2.21 6.63h0.553l-2.76-6.63m-95.1 0.553c-5.92 4.57-11 8.45-12.7 16h0.553l6.69-10.4 5.47-5.62m73 2.76 0.553 0.553-0.553-0.553m27.1 1.66v1.66h0.553l-0.553-1.66m-33.7 1.11 0.553 0.553-0.553-0.553m33.7 2.76 3.87 8.29-2.21-1.11c4.21 7.54 3.18 13.2 3.87 21.6l-1.66-0.553 0.553 2.21-7.18-6.08c3.58-4.86 2.49-11.3 1.11-17.1h-0.553c0 5.64-0.156 11-3.21 16-2.51 4.1-7.5 5.35-7.84 10.5 5.23-0.243 8.06-4.89 9.95-9.4 3.76 3.85 3.59 6.64 4.42 11.6h0.553c1.42-3.05 4.17-5.18 5.58-8.29 2.64-5.81 0.861-10.7 0.5-16.6l-5.53-11.1h-2.21m-112 9.95h1.66v0.553l-7.06 17.3-7.86 10.9h-0.553l4.97-16.6h-0.553c-2.83 6.78-6.15 12.9-6.63 20.4h-0.553c-0.742-12.5 8.12-23.7 14.4-33.7-8.06 3.79-14.1 19.8-15.6 28.2-0.58 3.3 0.186 6.12-1.01 9.4h-0.553l1.11-4.97h-0.553l-1.11 4.97-1.66-0.553c-1.51 7.43-12.8 11.2-16 18.2h0.553l9.95-8.84-0.553 2.76 6.08-4.97c0.111 5.38 0.308 11.1 2.76 16l2.21 0.553c-2.91-4.47-4-9.54-3.86-14.9 0.042-1.59 1.16-6.48 3.31-4.42h0.553v-3.32h0.553l-0.0365 22.7 6.67 19.9h0.553c-1.01-11.5-9.5-21.6-6.63-33.7l2.21 2.21c-1.58-5.55-1.88-9.62 1.13-14.9 1.13-1.98 3.15-3.41 3.85-5.53-4.24 1.72-5.53 6.4-6.63 10.5h-0.553c0.497-6.76 6.21-14.7 11.1-19.3v3.87h0.553l0.553-2.76h1.11c1.03 3.57 2.36 7.09 6.08 8.29-1.32-2.37-3.99-5.13-2.21-7.74v-0.553l-1.66 0.553 1.66-12.7h-1.66l1.11-2.76h0.553v2.21h0.553l1.66-4.42-1.66 1.11c1.3-3.91 4.3-8.55 8.84-8.29v-0.553l-1.66-0.553 4.97-2.76c-4.52-0.793-12.3 4.47-14.4 8.29m108-8.29-0.553 2.76h0.553v-2.76m-84.6 1.11 0.553 0.553-0.553-0.553m61.3 0v8.84h0.553l-0.553-8.84m23.8 1.66 0.553 2.21h0.553l-1.11-2.21m-106 3.87-1.11 1.66 1.11-1.66m-3.87 2.21 0.553 0.553-0.553-0.553m23.2 0.553-3.87 7.74h-0.553l2.21-4.97-6.08 4.97v-1.66h-0.553c-1.71 3.59-3.55 5.48-7.18 7.18v-0.553l1.66-0.553v-0.553c-2.97 1.4-7.68 6.64-3.87 9.4l1.66-3.87 6.63-5.53-6.08 5.53 4.97-2.21v2.76h1.11c1.31-6.57 13.3-9.63 9.95-17.7m28.2 0.553 0.553 0.553-0.553-0.553m1.66 0-5.53 3.32v-0.553l3.32-1.66v-0.553l-5.53 2.76v0.553c3.04 0.827 6.92-0.553 7.74-3.87m-7.18 1.66 0.553 0.553-0.553-0.553m-42.6 0.553-0.553 0.553 0.553-0.553m51.4 0-7.18 3.87v0.553c2.57-0.265 6.76-1.49 7.18-4.42m7.74 0 0.553 0.553-0.553-0.553m57.5 0 0.553 9.4h-0.553v-9.4m-55.8 0.553 1.66 1.11v-0.553l-1.66-0.553m-17.1 0.553-0.553 0.553 0.553-0.553m8.84 0 0.553 0.553-0.553-0.553m-1.11 0.553 0.553 0.553-0.553-0.553m56.9 1.66-0.553 4.97h-0.553l1.11-4.97m-111 1.11-0.553 0.553 0.553-0.553m18.2 0.553-1.11 1.66 1.11-1.66m76.3 0-1.11 4.97h0.553l0.553-4.97m-18.8 0.553 3.87 6.08-3.87 6.08h0.553l2.21-1.11c2.19-4.04 1.6-8.66-2.76-11.1m-76.3 0.553v8.29h-0.553l-0.553-3.32h-0.553l-1.11 3.87 2.76-8.84m14.9 2.21-0.553 0.553 0.553-0.553m9.4 0-4.97 11.1h-0.553v-1.66h-0.553l-2.76 5.53c-0.688 5.91-3.68 16.3 1.66 21l-0.553-13.3h0.553v1.66h0.553l2.76-9.4 0.553 1.11h0.553l3.87-9.95-2.76 3.32h-0.553c1.38-2.97 3.6-6.05 2.21-9.4m22.7 1.11v0.553c1.42 1.34 2.46 2.5 1.66 4.42v0.553l8.29 1.11c1.34 2.07 3.33 1.63 5.53 1.11l1.66 1.66v-5.53c-4.5-2.41-12.1-3.76-17.1-3.87m16 0.553 4.42 8.29-2.76-2.76v5.53c8.39 0.665 1.51-8.77-1.66-11.1m30.4 1.11 0.553 0.553-0.553-0.553m-0.553 1.66 0.553 0.553-0.553-0.553m-73.5 0.553-0.553 3.32h0.553v-3.32m-34.8 0.553 0.553 0.553-0.553-0.553m94.3 0.921-0.185 0.368 0.185-0.368m-23.6 0.184-0.553 0.553 0.553-0.553m-71.8 1.11 0.553 0.553-0.553-0.553m96.7 0v1.66h0.553l-0.553-1.66m-2.21 1.11-2.21 4.97h0.553l1.66-4.97m26.5 0-0.553 0.553 0.553-0.553m-82.3 0.553-4.42 11.1h-0.553c0.578-3.92 1.87-8.46 4.97-11.1m-39.8 0.553 0.553 0.553-0.553-0.553m93.4 0-0.553 1.11 0.553-1.11m-7.18 1.11-0.553 0.553 0.553-0.553m-45.3 0.553v1.66h0.553l-0.553-1.66m-42 1.66-1.11 7.74h0.553l0.553-7.74m8.29 0.553-0.553 0.553 0.553-0.553m118 1.11 6.63 28.7h-0.553c-1.15-3.59-1.93-8.08-5.53-9.95 5.55 11.9 6.08 21.3 6.08 34.3h0.553c1.22-5.12 1.49-13.2 0-18.2 12.5 6.92 30.2 15.2 44.8 15.5v-0.553c-11.2-2.31-21.4-7.62-32.1-11.2-3.23-1.09-10.3-2.39-12.1-5.47-1.7-2.82-0.449-8.28-0.59-11.5-0.263-5.94-2.9-17.3-7.16-21.6m-84.6 0.553c-1.6 8.61-1.34 19.5 0 28.2l-1.11-0.553v0.553l2.76 14.4h0.553c-0.258-6-3.47-13.1-0.553-18.8l-1.11-13.8h0.553v5.53h0.553l-1.66-13.8h1.11l-1.11-1.66m-17.1 0.553 0.553 0.553-0.553-0.553m98.9 0v32.1h0.553l1.11-2.21-0.553-8.84h0.553l1.66 27.1c-4.37-3.48-4.42-11.9-4.42-17.1h-0.553l1.66 13.8h-0.553l-3.32-6.08h-0.553l7.18 12.7h1.11l1.11-14.9h0.553l2.21 4.42h0.553l-3.32-10.5h0.553c-1.29-5.58-3.04-10.8-3.29-16.6-0.199-4.53 0.97-10.1-2.23-13.8m-117 0.921-0.185 0.368 0.185-0.368m-4.79 1.29 0.553 0.553-0.553-0.553m33.7 0-1.66 4.42 1.66-4.42m195 0.553v0.553l8.84 2.21-4.42-0.553v0.553l44.8 14.9c-2.58-4.57-10.1-6.4-14.9-7.55-11.5-2.76-22.2-10.1-34.3-10.1m-219 1.47 0.185 0.368-0.185-0.368m2.03-0.369 0.553 2.21h0.553l-1.11-2.21m68.5 0-3.89 12.7-1.63 14.9h0.553l1.66-11.1h0.553c1.62 6.26 5.49 14.2 3.87 20.4l1.11 0.553h0.553l1.11-5.53c-3.22-3.65-4.77-11.2-4.97-16-1.94 0-1.53-2.4-1.11-3.87 0.928-3.18 4.36-9.21 2.21-12.2m114 46.4v-1.66h0.553c0 10.9-2.37 21.3-3.41 32.1-0.411 4.25-1.63 9.73 2.86 12.2 1.61-12.7 7.15-26.8 16.6-35.8 2.5-2.38 6.03-3.23 8.78-5.25 2.89-2.12 4.43-4.74 6.6-7.47 1.85-2.33 3.99-3.43 3.36-6.69h-0.553c-2.71 4.06-8.58 9.82-13.3 12.2-2.17 1.09-4.52-0.0675-6.63 1.66-2.33 1.9-4.9 8.72-6.63 8.29l-0.553 2.76v-1.66l-3.13 8.84-4.61 16h-0.553l1.11-18.2 1.11 0.553v-0.553l-0.553-1.66c5.72-4.62 1.6-15.7-0.0326-21-3-9.83-0.214-22.2 8.32-28.2l-1.66 3.32 16.6-14.4c-3.55-1.37-7.11 2.18-10 3.81-11.4 6.36-16 16.9-15.9 29.3 0.0102 3.18-1.05 9.42 1.66 11.6m32.6-45.3 1.11 1.11v-1.11h-1.11m-230 0.553v1.66h0.553l-0.553-1.66m37.6 0-0.553 0.553 0.553-0.553m195 0v0.553l3.32 1.11v-0.553l-3.32-1.11m9.4 0-0.553 0.553 0.553-0.553m-236 1.11-0.553 0.553 0.553-0.553m231 0 0.553 0.553-0.553-0.553m-160 0.553c-1.82 7.58-1.41 16.1 0 23.8h0.553l1.11-15.5h-0.553l-0.553 4.97h-0.553v-13.3m-60.8 1.11 1.66 4.42-1.66-4.42m203 1.66-2.21 2.21v0.553l3.32-2.76h-1.11m3.87 0c-3.9 4.12-7.41 11.5-2.21 16-2.54-6.98 1.9-9.91 2.21-16m11.6 0.553 3.87 12.7h0.553c-0.485-3.74-1.09-10.5-4.42-12.7m18.8 0 2.21 0.553v0.553l-2.76-0.553 0.553-0.553m-234 1.11c1.2 8.89 7.33 16.2 10.8 24.3 3.63 8.47 4.13 16.9 4.13 26h0.553c0-17.5-4.13-36.2-15.5-50.3m205 0-0.553 1.11 0.553-1.11m32.6 0-0.553 0.553 0.553-0.553m-244 0.921 0.185 0.368-0.185-0.368m65.6-0.369-0.553 2.76h0.553v-2.76m-62.5 1.11 0.553 0.553-0.553-0.553m47 0v0.553h1.66l-1.66-0.553m153 0v1.11l1.11-1.11h-1.11m7.18 0-2.21 8.29h0.553l1.66-8.29m11.1 1.66 2.21 15.5h-0.553l-2.21-2.21c-8e-3 2.81-1.27 7.48 1.11 9.4v-4.97c3.03 6.41-2.42 9.76-4.97 14.9 2.08-1.06 3.79-3.15 6.1-3.7 14.8-3.5 21.2 7.14 32 14.8-2.21-4.74-9.03-10.1-13.8-12.2l1.11-1.11c-6.37-3.71-12.8-2.77-19.9-2.21l1.66-4.97h0.553v1.11h0.553l-1.11-13.3h0.553l1.11 8.84h0.553c0-5.9-1.19-15.2-4.97-19.9m-188 0.553 1.66 5.53-1.66-5.53m18.8 0v5.53h0.553l-0.553-5.53m17.3 0.369 0.185 0.368-0.185-0.368m132-0.369 0.553 0.553-0.553-0.553m-6.08 0.737c0.427 0 0.0884 0.275-0.184 0.185l0.184-0.185m-191 1.29 0.185 0.368-0.185-0.368m33.5-0.369v2.21h0.553l-0.553-2.21m30.9 0v1.11l1.11-1.11h-1.11m130 1.11-0.553 1.11 0.553-1.11m-198 1.11 0.553 4.42h0.553l-1.11-4.42m31.5 0.553v1.66h0.553l-0.553-1.66m5.53 0-1.11 16h-0.553l-2.21-7.74h-0.553l3.87 15.5h0.553l-0.434-7.18 0.434-16.6m-55.8 0.553-0.553 1.11 0.553-1.11m23.2 0c0.0127 6.17-1.99 12-1.98 18 0.0293 11.5 3.4 22.9 8.06 33.4h0.553l-7.18-28.2h0.553c3.45 14.9 9.95 28 9.95 43.7h0.553v-8.84h0.553l2.21 11.6h0.553v-6.63h-0.553v1.11h-0.553l-8.84-34.8h0.553l7.74 25.4h0.553c-0.917-10.5-7.1-19.7-9.33-29.8-1.72-7.81 0.447-17.7-3.38-24.9m29.3 1.11 0.553 2.21h0.553l-1.11-2.21m6.08 0 0.553 0.553-0.553-0.553m10.5 0-0.553 2.21h0.553v-2.21m221 1.11c1.98 6.73 6.82 12.1 10.8 17.7 2.34 3.25 4.15 6.98 7.42 9.4-2.89-8.35-11.2-21.7-18.2-27.1m-262 0.553v2.21h0.553l-0.553-2.21m217 0.921 0.185 0.368-0.185-0.368m-225 0.184c-0.45 2.33 0.212 3.71 2.21 4.97l-2.21-4.97m28.4 0.369 0.185 0.368-0.185-0.368m11.1 0 0.185 0.368-0.185-0.368m-61.5 0.184 0.553 0.553-0.553-0.553m60.2 0 0.553 0.553-0.553-0.553m230 0.553 0.553 0.553-0.553-0.553m-293 0.553 9.95 7.74c-2.41-3.42-5.71-6.92-9.95-7.74m33.7 0v1.66h0.553l-0.553-1.66m29.3 0 0.553 0.553-0.553-0.553m-6.63 0.553 0.553 0.553-0.553-0.553m1.66 0 0.553 0.553-0.553-0.553m4.42 0.553c0.89 16.9 5.67 31.4 12.2 47h0.553l-6.08-21h0.553v1.11h0.553v-9.4l-1.66 4.97h-0.553l-0.553-5.53h-0.553v1.66h-0.553l-3.87-18.8m178 0.184 0.368 0.185-0.368-0.185m-262 34.1h0.553l1.11-3.87h0.553v4.97h0.553c2.11-11.4 2.39-19.4 10.5-28.7l-4.42 7.74 10.5-12.7c-2.82-1.32-6.15 2.76-8.28 4.42-8.27 6.44-10.1 18.4-11.1 28.2m52-33.7 4.97 12.2c3.55 3.51 4.6 9.2 6.08 13.8h0.553l-7.74-25.4h-0.553l0.553 4.97h-0.553l-3.32-5.53m212 0 1.11 1.11-1.11-1.11m-242 0.553 0.553 0.553-0.553-0.553m23.9 2.03 0.185 0.368-0.185-0.368m4.24 0.737-0.553 0.553 0.553-0.553m39.2 0.553v1.66h0.553l-0.553-1.66m24.9 0 0.553 0.553-0.553-0.553m-101 0.553-0.553 1.66h-0.553l1.11-1.66m36.5 0 1.66 15.5h-0.553c-1.89-4.24-4.42-11.4-1.11-15.5m76.3 0v3.32h0.553l-0.553-3.32m141 0-0.553 0.553 0.553-0.553m-181 0.921 0.185 0.368-0.185-0.368m-51.4 0.553 0.185 0.368-0.185-0.368m87.7 0.184 0.553 0.553-0.553-0.553m-36.5 0.553v7.74h0.553l-0.553-7.74m-50.8 0.553 0.553 0.553-0.553-0.553m77.9 0 0.553 0.553-0.553-0.553m5.53 0 0.553 0.553-0.553-0.553m3.32 0 0.553 0.553-0.553-0.553m42.2 0.369 0.184 0.368-0.184-0.368m-42.7 0.737-0.553 2.21h0.553v-2.21m35.4 0.553 1.11 4.42h0.553l-1.66-4.42m-60.8 0.553c0 2.34 0.305 5.46-1.66 4.97l-2.76 21.6h0.553l0.553-8.84h0.553l1.66 12.2h0.553l-1.08-17.7 2.74-12.2h-1.11m16.6 0 1.11 2.76-1.11-2.76m129 8.84 9.4-7.74c-5.33-1.81-8.16 3.15-9.4 7.74m-152-7.92 0.185 0.368-0.185-0.368m31.3 0.737 0.553 0.553-0.553-0.553m-68 0.553 0.553 0.553-0.553-0.553m36.5 0 0.553 3.87h0.553v-3.87h-1.11m-35.9 1.11 0.553 0.553-0.553-0.553m60.2 0.553-1.66 10.5h0.553l1.11-10.5m45.3 0.553 0.553 0.553-0.553-0.553m-41.3 0.921 0.185 0.368-0.185-0.368m1.47-0.369-0.553 1.66 0.553-1.66m45.9 0 0.553 0.553-0.553-0.553m-78.1 0.737 0.368 0.185-0.368-0.185m-9.58 0.737 0.185 0.368-0.185-0.368m12.5 0.184 0.553 0.553-0.553-0.553m7.37 0.369 0.185 0.368-0.185-0.368m9.76-0.369v1.66h0.553l-0.553-1.66m-26 0.553 1.11 9.95h0.553l-1.66-9.95m11.8 0.369 0.185 0.368-0.185-0.368m23.6 0.184-0.553 2.76h0.553v-2.76m40.9 0-0.553 0.553 0.553-0.553m-100 0.553 0.553 6.63h0.553l-1.11-6.63m228 0-0.553 0.553 0.553-0.553m-179 0.553 0.553 0.553-0.553-0.553m-14.4 1.11 0.553 0.553-0.553-0.553m63 0v2.21h0.553l-0.553-2.21m12.7 0 0.553 0.553-0.553-0.553m-53.1 1.11-0.553 2.76h0.553v-2.76m54.2 0c2.73 5.85 8.18 9.35 13.3 12.9 12 8.47 25.3 15.8 40.3 15.8v-0.553c-10.8-1.81-18.9-5.06-28.2-10.5-2.71-1.58-7.52-3.09-7.18-4.42-6.88-0.474-12.9-9.53-18.2-13.3m60.2 0-0.553 0.553 0.553-0.553m-143 0.553v1.66h-0.553l0.553-1.66m-34.3 0.553-0.553 0.553 0.553-0.553m159 0v0.553h1.66l-1.66-0.553m5.53 1.11 3.32-0.553-3.32 0.553m-139-0.553 0.553 0.553-0.553-0.553m77.4 0.553v1.66h0.553l-0.553-1.66m60.2 0 0.553 0.553-0.553-0.553m-129 1.11-0.553 0.553 0.553-0.553m1.11 0-0.553 0.553 0.553-0.553m160 0.553-8.84 9.95c0.129-3.82 5.34-8.96 8.84-9.95m58.6 0c0.253 10.8 9.07 19.7 8.24 30.9-0.449 6.12-3.53 12.2-4.81 18.2-3.59 16.8-5.37 32.7-2.37 49.7 1.11 6.32 1.8 13.1 5.02 18.8h0.553l-0.553-2.21h0.553c0.933 3.24 2.39 6.24 5.53 7.74-8.98-13.8-13.1-33.3-11.5-49.7 1.17-12.3 5.56-24.2 6.54-36.5h0.553l-0.553 6.63h0.553l1.66-12.7h0.553v1.11h0.553c-0.0823-9.94-4.47-24.1-10.5-32.1m24.3 0.553c2.77 10.1 7.18 19.7 7.18 30.4h0.553v-1.66h0.553l-1.11 16h-0.553l-1.11-23.2h-0.553l0.437 26-5.96 17.7-0.553-1.11h-0.553l-0.553 3.32h-0.553v-2.76h-0.553c-3.46 15.1-9.56 30.7-6.63 46.4h0.553l1.66-24.3h0.553l-2.21 33.7h0.553l1.11-11.1h0.553v4.97h0.553c0-11.4 0.178-22.4 2.07-33.7 0.8-4.76 2.23-11.4 5.66-14.9l9.4 31.5h0.553c-0.917-11.2-9.28-22-9.48-33.2-0.124-6.76 5.67-13.5 7.3-19.9 2.85-11.1-0.245-21.6-3.72-32.1-1.36-4.07-2.17-8.94-5.16-12.2m2.21 0.553 7.18 21c2.24 0 2.5 10.9 2.95 13.3 2.75 14.1 4.24 29.2 4.24 43.7h-0.553l-1.11-6.63h-0.553l0.553 27.6h0.553v-1.66h0.553l0.553 12.7h0.553v-34.8h0.553l1.11 19.9h0.553c0-23-2.82-47.6-7.3-70.2-1.42-7.17-4.12-20-9.84-24.9m-246 0.553v1.66h-0.553l0.553-1.66m86.2 0-0.553 0.553 0.553-0.553m-91.6 1.47 0.185 0.368-0.185-0.368m7.55-0.369 0.553 0.553-0.553-0.553m15.5 0.553 0.553 0.553-0.553-0.553m-110 1.11c-8.19 9.83-5.3 25.6-8.29 37.6-0.632 2.53 0.0729 11.5-1.66 11.1l0.553 17.1h0.553v-1.11h0.553v10.5h-0.553v-8.84h-0.553l-0.553 11.1 1.11-0.553v2.21h-0.553l-0.553-1.11-0.158 7.74-1.5 42h0.553c0.348-16.8 7.39-33 12.7-48.6h-0.552c-6.3 9.07-10.7 24.4-11.6 35.4h-0.553c-2.08-16.4 3.87-32.7 3.87-49.2h0.553l0.553 13.8h0.553l0.553-4.97 2.76 7.18h0.553l-2.21-12.2c-2.47 0-3.22-8.29-3.32-10.5-0.468-11.2 1.37-21.5 1.66-32.6h0.553c1.04 5.59 3.52 13.2 2.21 18.8l1.11 8.84 1.11 19.3h0.553l0.553-1.11 0.553 2.76h0.553l-1.61-30.9 3.82-30.9h-0.553l-3.32 23.8h-0.553v-2.76h-0.553v4.97h-1.11l-1.06-11.6 3.82-18.8h-0.553l-3.87 16.6h-0.553l0.42-13.3 4-11.6m111 0.553 0.553 0.553-0.553-0.553m31.5 30.4v-0.553c-4.58-1.32-8.83-3.81-11.6-7.74l1.66 1.11v-2.21c-3.56-0.972-9.88-2.2-11.1-6.08h-0.553l0.553 4.42h-0.553c-0.621-1.66-2.05-4.59 0.553-4.97-1.01-6.25 3.91-11.8 9.95-8.29-1.45-3.16-2.79-5.49-6.63-4.97 0.0162-2.38-2.27 0.742-2.73 1.66-1.61 3.16-2.88 7.5-3.09 11.1-0.511 8.83 16 16.2 23.5 16.6m-33.7-29.8c-2.09 6.79-3.74 19.8 2.21 25.4l-1.11-6.08 2.21 0.553c-0.254-1.44-0.362-2.01-1.66-1.11l-1.66-8.84c0.285-0.877 0.196-2.83-0.553-1.11h-0.553l1.11-1.66v-7.18m17.7 0.553-1.11 1.11 1.11-1.11m33.7 0-7.74 9.95 7.74-6.63 1.11 14.4h0.553v-1.66h0.553v1.66h0.553l0.553-3.32h-0.553v1.66h-0.553l0.553-5.53h0.553l1.11 3.32h0.553l-0.553-7.18h-0.553v1.66h-0.553l-3.32-8.29m-158 1.11 0.553 0.553-0.553-0.553m160 0 1.11 3.32h0.553l-1.66-3.32m7.74 0.553v2.21h0.553l-0.553-2.21m144 0 0.553 0.553-0.553-0.553m-210 0.553 0.553 0.553-0.553-0.553m55.3 0.184c0.427 0 0.0885 0.275-0.184 0.185l0.184-0.185m99.5 0.369 0.553 16.6-7.74 1.11 0.553-1.66-11.6 0.553v0.553c5.65 1.06 12.6 2.21 18.2 0.553l-2.21 13.3h0.553c2.67-7.3 6.72-24.1 1.66-30.9m-108 0.553 0.553 0.553-0.553-0.553m-34.8 0.553-0.553 2.76-2.21-0.553 2.21 10.5 0.553-12.7m56.9 0.553-1.66 26.5h0.553l2.76-8.29c-1.86 0-1.11-2.88-1.11-4.42 0-3.42 1.34-11.2-0.553-13.8m-40.3 0.553-1.11 3.32 1.66-1.11-0.553 2.21h2.21l-1.11-4.42h-1.11m16.6 0.553-3.32 4.42 3.32-4.42m80.1 0 0.553 0.553-0.553-0.553m12.2 0-0.553 0.553 0.553-0.553m-87.9 0.553-3.32 3.87 3.32-3.87m-97.8 2.21v6.63h0.553l-0.553-6.63m53.6 0-0.553 0.553 0.553-0.553m34.3 0 0.553 0.553-0.553-0.553m5.34 0.737 0.368 0.185-0.368-0.185m-144 0.921 0.553 0.553-0.553-0.553m108 0.553 0.553 0.553-0.553-0.553m149 0.369 0.185 0.368-0.185-0.368m-153 0.184-0.553 0.553 0.553-0.553m0.553 1.11-0.553 0.553 0.553-0.553m232 0v1.66h0.553l-0.553-1.66m-79.6 0.553v1.66h0.553l-0.553-1.66m-213 0.553 3.32 47.5h0.553l-1.11-12.7h0.553l2.21 18.2h-0.553v-2.21h-0.553l8.84 32.6h0.553l-2.21-9.95 1.66 1.11-10.8-51.4-2.45-23.2m298 0.553-0.553 0.553 0.553-0.553m-235 1.11v1.66h0.553l-0.553-1.66m150 0v1.11h1.11l-1.11-1.11m-264 0.921 0.185 0.368-0.185-0.368m126 1.29 2.21 1.11 0.553 1.11v0.553l-2.76-2.76m138 0-1.11 14.4h0.553l0.553-14.4m-195 0.553v2.21h0.553l-0.553-2.21m50.8 0.553 0.553 2.21h-0.553l-0.553-1.66h-0.553l1.11 2.21v0.553c-3.84 3.51 6.08 9.59 8.84 10.5-0.668-1.24-1.75-1.98 0-2.21v-0.553l-3.87-1.11v-0.553c11.9 3.23 19.7 7.33 32.1 3.32v-0.553c-10.6 0.464-19.8 2.47-29.3-4.3-3.08-2.19-5.01-5.36-7.74-7.85m-53.2 1.47-0.185 0.368 0.185-0.368m63.2-0.185 0.184 0.185c-0.273 0.0906-0.611-0.185-0.184-0.185m-15.5 0.369 0.553 0.553-0.553-0.553m-44.8 0.553v4.42h0.553l-0.553-4.42m64.1 0-0.553 0.553 0.553-0.553m2.21 0 0.553 0.553-0.553-0.553m-21 0.553 2.21 8.29h0.553l-2.76-8.29m5.53 0.553-0.553 0.553 0.553-0.553m1.66 0-0.553 0.553 0.553-0.553m11.1 0-0.553 0.553 0.553-0.553m29.3 0-11.1 7.18v0.553l7.18-2.76v3.32c1.22-0.857 1.72-1.66 0.553-2.76l3.32-5.53m-40.9 1.11-0.553 0.553 0.553-0.553m14.4 0 1.11 1.11-1.11-1.11m-15.5 1.66-0.553 0.553 0.553-0.553m1.11 0.553 3.32 2.21v0.553l-3.32-2.76m-109 2.21 11.9 23.2 5.82 21 4.42 9.4-0.553-1.11 1.66 0.553-2.76-6.08h0.553l4.67 7.23 3.62 13.8-8.29-9.95 8.06 12.2 1.33 10.5h0.553c1.14-6.76-0.924-14.5-2.76-21h0.553l3.87 9.95h0.553l-11.3-26.5-14.6-35.9-1.11 1.11-6.08-8.29m224 1.66-0.553 0.553 0.553-0.553m-170 1.66 0.553 0.553-0.553-0.553m-8.84 1.11 0.553 0.553-0.553-0.553m8.84 0 0.553 0.553-0.553-0.553m108 0-1.11 5.53h-0.553l0.553-4.97h-0.553c-2.96 14.3-7.74 28.4-7.74 43.1h0.553v-2.76h0.553l0.553 14.4h0.553c-2.1-11.3-0.0316-26.6 3.33-37.6 1.35-4.4 6.46-13.5 3.85-17.7m1.11 0 0.553 0.553-0.553-0.553m-109 1.11 0.553 0.553-0.553-0.553m66.3 0 1.66 4.97h0.553l0.553-1.66 0.553 1.66h0.553l-1.66-3.87h2.76l-4.97-1.11m-139 0.553-2.21 15.5h0.553c0.926-3.89 3.16-11.8 1.66-15.5m73 0.553-2.76 19.3h0.553c2.02-5.36 4.55-13.8 2.21-19.3m193 2.76v2.21h0.553l-0.553-2.21m-125 1.66-0.553 7.74h-0.553l-0.553-2.21h-0.553l-0.553 5.53h0.553l0.553-2.76h0.553c1.22 5.36 4.98 9.99 5.9 15.5 0.971 5.82-0.828 12.4-1.38 18.2-0.731 7.65-0.427 14.9-3.41 22.1 3.29-1.87 3.31-5.98 3.71-9.4 1.07-9.02 2.29-18.6 2.37-27.6h0.553c1.65 7.97 3.83 16.1 3.27 24.3-0.282 4.1-2.1 7.64-2.71 11.6h0.553c7.54-12.9 1.59-25.5-0.97-38.7-1-5.18-0.136-11.3-0.136-16.6h-0.553l-0.553 12.7h-0.553l-4.94-11.6-0.0363-8.84m2.39 0.369 0.185 0.368-0.185-0.368m36.3-0.369-0.553 0.553 0.553-0.553m-40.9 0.553 0.553 1.66h0.553l-1.11-1.66m-1.11 1.11 0.553 0.553-0.553-0.553m6.26 0.921 0.185 0.368-0.185-0.368m-4.05 0.184 0.553 0.553-0.553-0.553m-117 1.66v1.66h0.553l-0.553-1.66m122 0v1.66h0.553l-0.553-1.66m-138 1.66v2.76h0.553l0.553-2.76h-1.11m259 0v3.32h0.553l-0.553-3.32m-234 0.553-0.553 0.553 0.553-0.553m43.1 0.553 0.553 0.553-0.553-0.553m70.7 0v1.66h0.553l-0.553-1.66m-121 0.553 0.553 0.553-0.553-0.553m7.74 0-0.553 0.553 0.553-0.553m29.8 0v2.21h-0.553l0.553-2.21m12.9 1.47 0.185 0.368-0.185-0.368m-68.7 0.737v2.76h0.553l-0.553-2.76m259 0 1.11 7.18v-7.18h-1.11m-240 0.553 0.553 0.553-0.553-0.553m50.5 0.369 0.185 0.368-0.185-0.368m63.4 0.737-2.76 7.74h0.553l2.21-7.74m42 1.66 0.553 0.553-0.553-0.553m-182 0.553 0.553 0.553-0.553-0.553m27.8 0.369 0.185 0.368-0.185-0.368m332 0.553 0.185 0.368-0.185-0.368m-178 0.737v2.76h0.553l-0.553-2.76m-154 0.553 0.553 0.553-0.553-0.553m107 0.553c-1.91 9.21-6.39 16.7-11.6 24.3 3.04-1.84 4.92-4.41 6.08-7.74h0.553l-0.553 2.21h0.553l2.76-6.08h-0.553l-1.66 3.87h-0.553c1.37-4.74 6.51-11.5 4.97-16.6m-107 0.553 0.553 0.553-0.553-0.553m239 0.553v1.66h0.553l-0.553-1.66m-86.2 1.66v3.32h0.553l-0.553-3.32m-151 0.553 0.553 0.553-0.553-0.553m107 0-1.11 3.32h0.553l0.553-3.32m130 0 0.553 0.553-0.553-0.553m-115 1.11 0.553 3.32h0.553l-1.11-3.32m-108 0.553 0.553 0.553-0.553-0.553m-4.97 1.11 3.32 10.5h-0.553l-2.76-10.5m230 0v2.21h0.553l-0.553-2.21m-205 0.553v2.21h0.553l-0.553-2.21m116 0-2.76 15.5h0.553v-1.66h0.553v7.18h0.553l0.243-12.2 0.863-8.84m-45.3 0.553 0.553 0.553-0.553-0.553m211 0v1.66h-0.553l0.553-1.66m-337 0.553v4.42h0.553l-0.553-4.42m126 0.553 0.553 0.553-0.553-0.553m-0.553 1.11 0.553 0.553-0.553-0.553m211 0.553-0.553 0.553 0.553-0.553m-346 0.921 0.185 0.368-0.185-0.368m134-0.369 0.553 0.553-0.553-0.553m134 0v6.63h0.553l-0.553-6.63m-135 1.11 0.553 0.553-0.553-0.553m137 0 0.553 0.553-0.553-0.553m-270 0.553 0.553 4.42h0.553l-1.11-4.42m14.4 0-0.553 0.553 0.553-0.553m52.9 0.369-0.185 0.368 0.185-0.368m203 0.184 0.553 0.553-0.553-0.553m-201 0.921-0.185 0.368 0.185-0.368m-54 0.184v1.66h0.553l-0.553-1.66m54.7 1.11 1.11 7.74h-0.553l-0.553-7.74m-54 1.47 0.185 0.368-0.185-0.368m-14.4 1.11 0.185 0.368-0.185-0.368m14.7 0.184 0.553 2.21h0.553l-1.11-2.21m252 0v3.32h0.553l-0.553-3.32m-225 0.921-0.185 0.368 0.185-0.368m-27.8 0.553 0.185 0.368-0.185-0.368m255-0.369 0.553 0.553-0.553-0.553m-269 0.553 0.553 0.553-0.553-0.553m27.1 3.32h3.87l-1.11-2.21 1.66-0.553c-2.03-0.191-3.46 1.05-4.42 2.76m17.7-3.32 1.11 3.32h-0.553l-0.553-3.32m-30.9 1.11-0.553 1.66 0.553-1.66m253 1.11 0.553 0.553-0.553-0.553m-250 1.11 0.553 0.553-0.553-0.553m14.9 0 0.553 0.553-0.553-0.553m310 0v2.21h-0.553l0.553-2.21m-337 0.553-0.553 4.97h0.553v-4.97m20.3 1.29 0.368 0.185-0.368-0.185m2.39 0.921v0.553l1.66 0.553-7.44 11.1-6.93 10.5 12.2-11.1 6.63-3.87 8.84 6.08-3.87-6.63c6.39 2.52 10.8 12.2 11.1 18.8 1.42-3.39-0.654-7.46-2.21-10.5-3.65-7.15-11.1-16-19.9-15.5m313 0.369-0.185 0.368 0.185-0.368m-303 5.71 1.11 3.32-7.18-4.42-7.74 4.97 3.87-4.97c-0.847-5.54 8.05-0.238 9.95 1.11m-15.5-2.76-2.76 3.87h-0.553l0.553-2.21h-0.553c-4.61 8.5-10.2 14.5-12.2 24.3-0.368 1.81-2.12 8.49 0 8.84l-1.11 18.8h0.553l1.66-21h0.553l0.553 9.4h0.553c-0.442-10.3 2.09-17.2 4.42-27.1l0.553 1.11h0.553l7.18-16m-18.8 0.553v2.76h0.553l-0.553-2.76m24.3 0v0.553l3.87 0.553-3.87-1.11m43.1 1.11v1.66h-0.553l0.553-1.66m-68 2.76v2.76h0.553l-0.553-2.76m16 0-1.11 1.11 1.11-1.11m13.3 2.21-3.32-0.553 3.32 0.553m-18.8-0.553 0.553 0.553-0.553-0.553m12.7 0-2.21 2.21 2.21-2.21m-8.29 0.553-0.553 0.553 0.553-0.553m338 0.921 0.185 0.368-0.185-0.368m10.3-0.369-1.11 9.4c1.74-1.52 1.77-7.24 1.11-9.4m-364 0.553v4.42h0.553l-0.553-4.42m9.95 0-0.553 1.11 0.553-1.11m4.97 0-0.553 0.553 0.553-0.553m-35.9 1.66 2.21-0.553-2.21 0.553m6.08-1.11 0.553 0.553-0.553-0.553m29.3 0.553-0.553 0.553 0.553-0.553m8.84 0c-0.423 2.86-2.31 5.92-2.03 8.82 0.466 4.98 7.11 13.8 11.4 16l-0.553-1.66c-3.41-1.83-9.75-10.9-9.98-14.9-0.162-2.87 2.14-5.46 1.14-8.29m153 0-0.553 1.66 7.74 4.42-7.18-6.08m177 0 0.553 16h0.553l-1.11-16m-180 0.553-0.553 1.11 0.553-1.11m-165 0.553 0.553 0.553-0.553-0.553m30.4 1.11c0.72 4.8 3.9 8.9 2.21 13.8l1.66-1.11 8.84 17.1-0.553 7.18 1.11 23.2h0.553c-0.582-7.37-0.552-14.7-0.553-22.1 0-2.43-1.05-6.25 1.11-7.74-3.05-8.94-7.61-23.7-14.4-30.4m107 0-2.76 10.5c2.94-1.93 3.72-7.19 3.87-10.5h-1.11m-138 0.553 0.553 0.553-0.553-0.553m-54.2 0.553 0.553 0.553-0.553-0.553m1.11 0v0.553h11.6l-11.6-0.553m12.2 0 0.553 0.553-0.553-0.553m45.3 0-3.87 11.6h-0.553c0.532-4.12 1.58-8.46 4.42-11.6m60.2 0 0.553 2.21h0.553l-1.11-2.21m101 0c-10.3 12.9-17.6 26.1-21 42.6h0.553c2.73-9.63 6.34-18.7 10.9-27.6 1.49-2.9 3.5-8.29 6.77-9.4l2.76-5.53m-166 0.553 0.553 0.553-0.553-0.553m11.1 0-0.553 0.553 0.553-0.553m-5.16 0.921-0.185 0.368 0.185-0.368m38.9 0.184 2.76 10.5-2.21-3.32h-0.553c0.634 6.15 7.13 11.6 10.5 16.6l-4.97-3.87c3.09 4.47 7.13 7.84 9.78 12.7 6.78 12.5 10.3 26.9 15 40.3 2.03 5.88-3.82 16.5 2.9 19.9l-2.76-27.1h-0.553l1.66 7.18h-0.553l-7.18-23.2-0.553-6.63-18.9-30.4-4.27-12.7m17.7 0c2.2 5.95 6.84 10.3 9.52 16 2.87 6.11 3.85 13 5.96 19.3 3.13 9.49 7.49 18.6 8.29 28.7h0.553c-0.249-12-4.45-24-8.29-35.4l-0.553 1.11h-0.553c1.21-7.7-4.04-16.5-8.78-22.1-1.3-1.54-2.6-5.25-4.49-5.53l0.553-2.21h-2.21m-63.6 0.553 0.553 0.553-0.553-0.553m145 0c-9.65 14.3-20.3 33.4-24.3 50.3h0.553c4.2-12.3 11.2-24.3 17-35.9 1.95-3.89 7.12-9.98 6.77-14.4m-77.4 0.553 0.553 1.66h0.553l-1.11-1.66m78.5 0v4.97h0.553l-0.553-4.97m-146 0.553-0.553 1.11 0.553-1.11m352 1.11c0.965 12.2 1.66 23.3-1.11 35.4h0.553c3.3-10.1 6.57-25.5 0.553-35.4m-353 0.553 0.553 0.553-0.553-0.553m39.2 0 0.553 0.553-0.553-0.553m320 0-0.0907 17.7-2.57 13.3 1.01 7.18h0.553l0.553-1.11 3.87 4.42-4.06-6.08 1.3-25.4-0.553-9.95m-297 0.553 0.553 0.553-0.553-0.553m-62.5 0.553 0.553 0.553-0.553-0.553m38.7 0-0.553 0.553 0.553-0.553m127 0 0.553 0.553-0.553-0.553m-166 1.11 0.553 0.553-0.553-0.553m39.8 0 4.42 11.6c-2.91-1.91-5.13-8.23-4.42-11.6m125 0-0.553 1.66h0.553v-1.66m157 0.369-0.185 0.368 0.185-0.368m-256 0.184 0.553 0.553-0.553-0.553m6.82 0.921 0.185 0.368-0.185-0.368m-6.26 0.184 0.553 0.553-0.553-0.553m256 0.921-0.185 0.368 0.185-0.368m-143 0.553 0.185 0.368-0.185-0.368m2.58-0.369 4.42 27.6h0.553c-0.0227-8.15-1.85-20.2-4.97-27.6m82.9 0c0 11.3 2.93 20.7 12.2 28.2l-10.5-16.6-1.62-11.6m93.4 0v4.97h0.553l-0.553-4.97m-35.4 1.11 0.553 2.76h-0.553v-2.76m-183 0.553 0.553 0.553-0.553-0.553m40.3 0.553-3.32 28.2h0.553c0-3.47-0.313-7.1 0.497-10.5 1.26-5.31 4.53-12.3 2.27-17.7m-148 0.921 0.185 0.368-0.185-0.368m324-0.369v11.6h-0.553l0.553-11.6m-319 0.921 0.185 0.368-0.185-0.368m314-0.369 0.553 4.97h0.553l-1.11-4.97m-173 0.553v2.21h0.553l-0.553-2.21m-142 1.11 0.553 13.8h0.553l-1.11-13.8m301 0.921 0.185 0.368-0.185-0.368m-336 0.184v1.66h-0.553l0.553-1.66m28.2 0 0.553 0.553-0.553-0.553m328 0.369 0.185 0.368-0.185-0.368m-156 0.184 0.553 0.553-0.553-0.553m-152 0.553 1.11 1.66-1.11-1.66m158 0 0.553 0.553-0.553-0.553m2.21 0 0.553 0.553-0.553-0.553m-196 0.553 3.87 22.1h0.553l-4.42-22.1m16 0 0.553 0.553-0.553-0.553m300 0 1.66 1.11-1.66-1.11m28.7 0 0.553 0.553-0.553-0.553m-329 1.11 0.553 0.553-0.553-0.553m94.5 0c-9.59 6.1-14.2 17-20.5 26-2.87 4.09-6.86 6.73-9.93 10.5 8.35-3.95 14.4-13.4 18.2-21.6l1.11 1.11 11.1-16m229 0v1.66h0.553l-0.553-1.66m5.53 1.11v2.76h0.553l-0.553-2.76m-365 1.47 0.185 0.368-0.185-0.368m16.9 2.39 6.1 24.3 3.09 10.5-3.66 6.08 4.97-4.42-5.53 9.95 7.74-8.84-4.61-10.5-8.11-27.1m-17.7 0.553 0.553 0.553-0.553-0.553m162 0.553c-2.26 5.82-4.27 11.5-5.52 17.7-1.25 6.15-1.26 11.6-5.53 16.6l2.76-7.18h-0.553l-9.35 17.7-4.1 6.63 2.43 8.84-5 9.4 5.53-7.18 1.66 0.553v-3.32l3.32 1.11c-2.15 6.36-7.96 7.9-13.3 10.5v0.553l1.66-0.553 0.553 0.553c-1.17 4.01 0.319 8.57 2.21 12.2h0.553c-1.44-5.27-4.89-11.9 2.21-13.8v0.553l-3.87 3.32 6.08-4.42-1.11 0.553v-0.553c1.89-1.93 5.45-4.83 5.71-7.71 0.223-2.42-3.15-3.33-3.82-5.56-1.28-4.26 0.461-9.32 1.98-13.3h0.553v3.32h0.553l1.11-6.08h0.553v23.8h0.553c0-10.2-2.35-23.8 4.42-32.1l-0.553 10.5h0.553c0.0266-9.79 1.7-19.8 4.08-29.3 0.945-3.78 4.32-9.52 3.66-13.3m-96.2 0.553-0.553 0.553 0.553-0.553m275 1.11-0.553 1.11h1.11l-0.553-1.11m-342 1.11v2.21h0.553l-0.553-2.21m46.1 1.47 0.185 0.368-0.185-0.368m293-0.369 0.553 0.553-0.553-0.553m-340 1.66 0.553 2.21h0.553l-1.11-2.21m46.1 1.47 0.185 0.368-0.185-0.368m44-0.369 3.87 15.5h-0.553c-1.09-4.62-5.29-10.7-3.32-15.5m-90.1 2.21 0.553 0.553-0.553-0.553m46.6 0.921 0.185 0.368-0.185-0.368m-70.4 5.71-2.76 2.21v-0.553l2.21-0.553v-0.553l-8.84 3.32 6.63-4.42v-0.553l-9.4 5.61-9.95 3.23v0.553l9.4-2.76-17.7 23.2h0.553l2.21-2.76-3.32 3.32-3.32 7.18h-0.553c-2.15 9.28-8.32 16.8-9.3 26.5-0.845 8.45 2.22 14.4 4.95 22.1 3.57 10 6.91 19.9 11 29.8h0.553l-1.11-3.32h0.553c4.78 10.2 3.87 20.2 3.87 31.5h0.553v-24.3h0.553l3.32 9.4c2.32 0 4.7 7.28 5.62 9.4 1.42 3.27 4.63 7.8 4.05 11.6-0.781 5.11-7.32 12.1-11.3 14.9v0.553c5.83-3.02 8.2-9 12.2-13.8l2.76 30.9h0.553c0-6.85 0.166-13.6-0.639-20.4-0.44-3.72-2.08-7.93-1.98-11.6 0.134-5.03 2.73-10.5 3.62-15.5 1.38-7.69 1.19-17.2-0.16-24.9-1.11-6.33-3.07-13.7-6.26-19.3-2.76-4.87-7.09-8.8-8.41-14.4-2.54 0-3.78-7.19-4.33-9.4-2.71-10.8-0.123-23.1 2.12-33.7h0.553v19.9h-0.553v-4.97h-0.553c0 21.9 13.8 38.2 19.5 58.6 2.45 8.85 0.433 19.2 0.433 28.2h0.553l0.553-21.6h0.553c0.778 9.77 3.93 19.5 1.24 29.3-1.37 5.02-4.14 8.88-6.77 13.3 14.3-10.3 7.15-32.9 5.14-47-0.654-4.58-0.188-9.27-1.27-13.8h0.553l0.553 1.66h0.553c-4.28-12.8-5.48-26.3-12.7-38.1h-0.553c4.3 10.3 7.8 19.9 9.95 30.9h-0.553c-2.59-5.54-6.86-10.1-9.78-15.5-4.8-8.82-8.65-26.4-4.59-35.9-2.6-1.79-0.678-6.74-0.134-9.4 2.05-9.96 12.3-17 21.1-20.4v0.553c-7.13 3.39-13.8 10.9-17.7 17.7 8.78-6.46 13.7-16 24.3-20.4v0.553l-9.4 6.63c-0.788 3.58-4.15 6.43-6.23 9.4-4.18 5.94-8.7 12.3-10.8 19.3-1.03 3.49-1.85 10.4 1.54 12.7-4.48-12.3 5.66-25.1 12.8-34.3 2.61-3.37 5.71-7.38 9.34-9.69 6.23-3.96 13.9-5.25 20.4-8.55v-0.553l-11.1 1.66v-0.553l2.21-1.11v-0.553l-11.1 3.87v-0.553c2.3-0.34 4.84-0.669 4.97-3.32l6.08-2.21v-0.553l-14.4 3.32c4.96-5.37 12.3-6.42 18.8-4.42-6-5.99-15.5 0.807-21.6 3.32m23.8-4.42 1.11 3.87-1.11-3.87m47.2 0.921 0.185 0.368-0.185-0.368m148 2.21 0.185 0.368-0.185-0.368m-148 0.184 0.553 0.553-0.553-0.553m312 0-5.53 3.87-0.553 2.76c2.3-1.3 5.9-3.84 6.08-6.63m4.42 0c0.292 6.29 5.65 9.67 11.6 9.95v-0.553c-5.97-1.95-7.72-5.02-11.6-9.4m-359 1.11 0.553 0.553-0.553-0.553m21.6 0 0.553 0.553-0.553-0.553m302 0-4.97 2.76v0.553l4.97-3.32m-344 0.553v0.553h-1.66l1.66-0.553m63.2 1.47 0.185 0.368-0.185-0.368m-74.8 0.184v0.553l-2.21 0.553 2.21-1.11m12.2 0v0.553l-7.74 2.76c2.05-2.39 4.65-3.17 7.74-3.32m-6.08 0.553v0.553l-7.18 3.32 7.18-3.87m98.4 0-0.553 0.553 0.553-0.553m-107 0.553v0.553l-6.63 3.87c1.61-2.64 3.71-3.62 6.63-4.42m217 0c-0.0102 15.3-10.6 26-12.7 40.3h0.553l3.87-10.5h0.553l-1.66 8.29h0.553l1.11-6.08h0.553l-4.42 22.7h0.553c0.64-5.06 1.46-16.5 5.26-20.1 2.06-1.98 5.96-1.42 8.56-1.42 7.42 0 14.7-1.1 22.1-1.11v-0.553l-30.4 1.11 6.63-24.9-1.1-7.74m105 0 5.53 7.18v0.553l6.63 1.66v0.553l-10.5-3.46-11-1.51c-0.459 3.51-12.1 2.76-14.9 2.76v0.553h12.7v0.553c-4.74 1.44-1.48 7.24 2.76 4.42l1.11 3.87 7.74-2.76-1.11 3.87 14.4-4.42 0.553-2.21 6.08 0.553v0.553h-1.66l-0.553 2.21c6.72-1.76 3.48 3.04 7.74 5.53-0.511-4.46 1.77-6.67 5.53-8.84l-1.11 8.84h0.553c0.0263-2.89 0.46-5.95 2.44-8.23 4.1-4.72 3.76 1.65 2.53 4.36l1.66 1.11 2.76-1.11v-0.553l-2.21-0.553 1.11-4.42 7.74 0.553v0.553l-1.66 1.66c1.89-0.694 2.51-1.3 2.21-3.32l6.08 0.553v0.553l-2.21 1.11 12.7-1.66v-0.553c-7.37-0.0607-14.8-0.414-22.1-0.553-3.25-0.0613-5.63-1.05-8.84-0.185-2.95 0.794-6.91 0.183-8.84 2.95l-4.97-2.76-3.32 0.553 1.11-1.66c-6.49 0.869-11.7-5.46-16.6-8.84m30.2 0.184 0.368 0.185-0.368-0.185m-330 0.369v0.553l-8.84 3.87c2.33-3.03 5.06-4.34 8.84-4.42m296 0c-0.033 1.98-1.27 4.46 1.11 4.97v-4.97h-1.11m32.6 0 0.553 0.553-0.553-0.553m-339 0.553-0.553 0.553 0.553-0.553m67.1 0.369 0.185 0.368-0.185-0.368m302-0.369 0.553 0.553-0.553-0.553m-379 0.553v0.553l-3.32 1.66-1.66 2.76 1.11-1.66-6.08 3.87c1.79-3.76 6.14-5.86 9.95-7.18m108 0 0.553 0.553-0.553-0.553m271 0.553-1.11 5.53c1.63-1.6 2-3.4 1.11-5.53m-375 0.553-0.553 0.553 0.553-0.553m82.3 0v1.66h0.553l-0.553-1.66m-83.5 0.553-0.553 0.553 0.553-0.553m54.3 0.369 0.185 0.368-0.185-0.368m-50.5 0.368 0.184 0.185c-0.272 0.0906-0.611-0.185-0.184-0.185m-10.5 0.369 0.553 0.553-0.553-0.553m81.4 0.369 0.185 0.368-0.185-0.368m-96.3 0.184 0.553 0.553-0.553-0.553m76.5 0.369 0.185 0.368-0.185-0.368m243-0.369 0.553 0.553-0.553-0.553m1.66 0v0.553h2.76l-2.76-0.553m3.87 0 0.553 0.553-0.553-0.553m1.66 0v0.553h2.76l-2.76-0.553m9.95 0 0.553 0.553-0.553-0.553m-4.42 0.553v1.11h-1.11l1.11-1.11m84.6 0v0.553l6.08 1.66v0.553l-16.6-1.11v0.553c5.53 1.8 16.3 6.44 19.3-1.66-3.4 1.24-5.54 0.721-8.84-0.553m-312 0.553 0.553 0.553-0.553-0.553m103 0 0.553 0.553-0.553-0.553m-191 0.553-0.553 0.553 0.553-0.553m59.7 0v1.66h0.553l-0.553-1.66m20.1 0.369 0.185 0.368-0.185-0.368m-80.9 0.184-1.11 1.11 1.11-1.11m318 0v1.66h-4.42l-1.11 2.21c-0.157-3.15 2.96-3.75 5.53-3.87m6.63 0v0.553l-4.42 1.66-1.11-2.21h5.53m56.9 0.553-0.553 1.11 0.553-1.11m-386 0.553-1.11 1.11 1.11-1.11m340 2.76-9.95 4.97v-2.21h2.76v-0.553h-1.66l1.66-2.76h-7.18c4.77-3.93 9.06 0.44 14.4 0.553m-117-2.21v1.66h-0.553l0.553-1.66m-227 0.553c-0.926 2.34-2.02 3.6-4.42 4.42l4.42-4.42m326 0-2.76 2.21 2.76-2.21m2.21 0-0.553 0.553 0.553-0.553m-229 0.553v1.66h0.553l-0.553-1.66m222 0-1.11 1.11 1.11-1.11m83.3 0.184 0.368 0.185-0.368-0.185m-399 0.369-0.553 0.553 0.553-0.553m56.9 0-1.11 1.66 1.11-1.66m52 0-9.95 6.08v0.553l2.21-0.553-2.76 3.87c2.86-1.8 9.7-6.73 10.5-9.95m57.1 0.369 0.185 0.368-0.185-0.368m160-0.369v0.553l-2.76 0.553 2.76-1.11m75.7 0 0.553 0.553-0.553-0.553m-179 0.921-0.185 0.368 0.185-0.368m105 0.184c-0.0818 1.06-1.17 3.1-1.11 1.11-2.16 1.45-4.88 3.87-5.53 0l6.63-1.11m28.7 0-3.32 4.42h-0.553l0.553-4.42h3.32m-373 6.63h0.553l4.97-5.53c-2.77-0.0585-4.46 3.28-5.53 5.53m13.8-6.08-1.66 1.66 1.66-1.66m168 0 0.553 0.553-0.553-0.553m151 0-0.553 0.553 0.553-0.553m12.7 0-0.553 0.553 0.553-0.553m-165 1.11 0.553 0.553-0.553-0.553m-0.553 1.11 0.553 0.553-0.553-0.553m-170 0.553-9.95 21.6h0.553l3.87-8.29h0.553l-6.08 13.3h-0.553l1.11-3.87h-0.553l-3.32 7.74h-0.553l9.4-23.8-6.63 13.8c-1.72-6.9 7.02-16.8 12.2-20.4m68.5 0-7.18 9.4c2.6-1.99 6.59-6.12 7.18-9.4m45.3 0 0.553 0.553-0.553-0.553m58.6 0-6.63 23.2h-0.553l3.32-14.4h-0.553l-0.553 2.76h-0.553v-1.66h-0.553c-0.0415 5.03-0.995 16.8-4.42 20.4l5.38 7.45-3.17 9.13h-0.553l0.553-11.6h-0.553c-4.3 8.93-0.579 21.6-0.553 30.9h0.553v-2.21h0.553l7.74 3.87-0.553-2.76-0.553-0.553c-11.3 0.676-5.62-17-3.32-22.7h0.553l0.553 3.32h0.553l0.553-12.2-2.76 1.66c-3.27-7.34 1.65-17.1 3.87-24.9 0.843-2.94 2.73-6.96 1.66-9.95m-175 0.553-3.32 3.32 3.32-3.32m4.42 0-0.553 0.553 0.553-0.553m97.8 0 3.76 33.2 6.38 34.8 5.22 14.9-0.437 16.6h0.553l0.553-7.74h0.553l2.21 14.4 1.11-1.11 0.553 2.21h0.553l-3.32-17.1h0.553l3.32 13.3-3.32-19.9h-0.553v2.21h-0.553c-0.221-4.29 0.867-9.08 0.0336-13.3-0.817-4.1-3.38-7.74-4.89-11.6-2.06-5.25-3.49-11.1-4.88-16.6-1.09-4.31-4.43-13-2.42-17.1v-0.553c-1.98-3.38 10.8-4.09 13.3-4.42v-0.553l-14.9 2.21c-0.016-5.81 0.177-19.2-3.32-23.8m12.7 0-5.53 6.63 5.53-6.63m81.8 0-0.553 2.21h-0.553l1.11-2.21m-86.8 0.553-0.553 0.553 0.553-0.553m32.8 0.369 0.185 0.368-0.185-0.368m8.66-0.369v0.553c3.9 2.88 18.1 7.72 20.4 0.553-7.21 3.62-13.3 0.596-20.4-1.11m224 3.87 4.42-3.87-4.42 3.87m-253-3.32 0.553 0.553-0.553-0.553m190 0.184 0.368 0.185-0.368-0.185m1.29-0.184v0.553h4.97l-4.97-0.553m5.53 0v0.553h3.32l-3.32-0.553m3.87 0 0.553 0.553-0.553-0.553m1.11 0 0.553 0.553-0.553-0.553m-208 1.66v0.553l5.53-1.11-5.53 0.553m-111-0.553-0.553 1.11 0.553-1.11m137 0 0.553 0.553-0.553-0.553m59.7 0v1.66h0.553l-0.553-1.66m-212 1.11-0.553 1.66 0.553-1.66m85.7 0-4.42 4.42v0.553c2.25-0.637 4.63-2.45 4.42-4.97m38.5 0.184 0.368 0.185-0.368-0.185m28.4-0.184 0.553 0.553-0.553-0.553m-30.4 0.553 0.553 0.553-0.553-0.553m80.1 0-0.553 0.553 0.553-0.553m-193 0.553-3.87 7.74h-0.553l4.42-7.74m170 0.369 0.185 0.368-0.185-0.368m-26.2 0.184 0.553 0.553-0.553-0.553m58 0v2.21h0.553l-0.553-2.21m172 0 0.553 0.553-0.553-0.553m-385 0.553 0.553 0.553-0.553-0.553m63.6 0c-0.0984 2.68 1.41 3.82 3.32 5.53l-3.87-0.553v0.553c3.65 0.688 9.69 2.11 11.1 6.08l3.32 1.66-0.553-1.66c3.83-0.0115 6.62-1.13 8.84-4.42h-9.95v-0.553h5.53v-0.553l-8.84-0.553 1.11-1.66-8.29-2.76 3.87 3.87-5.53-4.97m-60.4 0.921-0.185 0.368 0.185-0.368m74.8-0.369-1.11 1.66 1.11-1.66m76.3 0 7.58 17.1 2.37 13.3 1.66 12.2h0.553l0.553-12.2-1.66 0.553v-6.08l-2.76-1.66v-0.553c3.27-5.65-3.36-19.5-8.29-22.7m25.6 0.369 0.185 0.368-0.185-0.368m-180 0.184 0.553 0.553-0.553-0.553m181 0 0.553 0.553-0.553-0.553m22.7 0-1.11 1.66 1.11-1.66m-204 1.11-2.76 9.4h0.553l2.21-9.4m154 0.369 0.185 0.368-0.185-0.368m26.5 0 0.185 0.368-0.185-0.368m32.4 0.184 0.553 0.553-0.553-0.553m-136 0.553 0.553 0.553-0.553-0.553m133 0c-1.49 18.9 0.255 38-0.574 56.9-0.567 13-4.6 22.5-0.967 35.4 2.17 7.67-3.2 20 5.96 24.3l-3.15-6.63 2.59-9.4 0.561-13.8h-0.553v8.29h-0.553l0.553-33.7h-0.553v1.11h-0.553c1.79-14.2-1.02-27.4-1.64-41.4-0.289-6.61 1.86-14.8-1.13-21m-146 1.11 0.553 0.553-0.553-0.553m7.74 0.737c0.427 0 0.0885 0.275-0.184 0.185l0.184-0.185m308 1.47v0.553l55.3-1.06 19.9-0.596c-5.23-2.19-14.7 0-20.4 0-18.2 0-36.5 1.11-54.7 1.11m76.1-1.47 0.368 0.185-0.368-0.185m1.29-0.184v0.553h3.32l-3.32-0.553m3.87 0 0.553 0.553-0.553-0.553m-449 0.553-0.553 0.553 0.553-0.553m202 0.369 0.185 0.368-0.185-0.368m-202 0.737-0.553 0.553 0.553-0.553m227 0-1.11 4.42h-0.553l1.66-4.42m139 0v0.553h1.66l-1.66-0.553m-9.4 0.553 0.553 0.553-0.553-0.553m3.87 0 0.553 0.553-0.553-0.553m1.11 0 0.553 0.553-0.553-0.553m-137 0.921-0.185 0.368 0.185-0.368m-151 0.184v0.553h-6.63l6.63-0.553m117 0-1.11 8.84c-3.24-2.86-2-6.4 1.11-8.84m11.1 0v2.21h0.553l-0.553-2.21m71.8 0.553 0.553 0.553-0.553-0.553m1.11 0 0.553 0.553-0.553-0.553m1.11 0 0.553 0.553-0.553-0.553m1.47 0.184 0.368 0.185-0.368-0.185m1.84-0.184v0.553h1.66l-1.66-0.553m2.21 0 0.553 0.553-0.553-0.553m1.11 0v0.553h26c-6.73-2.82-18.6-0.553-26-0.553m27.1 0 0.553 0.553-0.553-0.553m-49.2 1.11 0.553 0.553-0.553-0.553m1.47 0.184 0.368 0.185-0.368-0.185m1.29-0.184 0.553 0.553-0.553-0.553m-193 0.553v0.553h-3.32l3.32-0.553m3.87 0 0.553 0.553-0.553-0.553m1.47 0.184 0.368 0.185-0.368-0.185m1.66 0 0.368 0.185-0.368-0.185m-85.3 0.737 0.185 0.368-0.185-0.368m312-0.369 0.553 0.553-0.553-0.553m1.66 0 0.553 0.553-0.553-0.553m1.11 0v0.553h1.66l-1.66-0.553m2.58 0.184 0.368 0.185-0.368-0.185m1.29-0.184v0.553h2.76l-2.76-0.553m3.32 0 0.553 0.553-0.553-0.553m1.47 0.184 0.368 0.185-0.368-0.185m1.84-0.184 0.553 0.553-0.553-0.553m-116 0.921 0.185 0.368-0.185-0.368m72.2-0.369 0.553 0.553-0.553-0.553m1.66 0v0.553l14.9 0.553c-2.35-2.69-11.4-1.11-14.9-1.11m15.5 0v0.553h4.42l-4.42-0.553m4.97 0 0.553 0.553-0.553-0.553m3.68 0.184 0.368 0.185-0.368-0.185m1.29-0.184v0.553h1.66l-1.66-0.553m-309 1.11 0.553 0.553-0.553-0.553m285 0 0.553 0.553-0.553-0.553m-288 1.11-2.21 9.4h-0.553c3e-3 -3.53 0.138-6.78 2.76-9.4m1.47 0.921-0.185 0.368 0.185-0.368m6.82-0.369-0.94 24.3 5.36 16c-2.67-1.88-4.69-3.98-5.53-7.18l-1.11 1.11c-8.71-7.1-4.46-26.2 2.21-34.3m-5.53 0.553-0.553 0.553 0.553-0.553m241 3.32v0.553c20.3 0 41.2-0.767 61.3-3.32l-17.1 0.531-44.2 2.23m-239-2.39 0.185 0.368-0.185-0.368m-2.39 0.184-2.76 7.74h-0.553l1.66-7.18 1.66-0.553m165 0.553v0.553l10.5-0.553h-10.5m12.7 0.553v2.21h-0.553l0.553-2.21m-156 3.32v0.553l11.6 1.11v0.553l-4.42 1.11 44.8-2.76v0.553l-6.63 0.553v0.553l22.7-1.66v0.553l-23.2 2.76v0.553l28.2-2.76c-2.28-3.71-8.34-1.85-12.2-2.76l14.4-1.11c-5.41-2.27-14.6-0.553-20.4-0.553-9.95 0-19.9 0.649-29.8 1.08-8.21 0.359-16.8-0.243-24.9 1.68m219-2.21 0.553 0.553-0.553-0.553m-246 1.11-2.76 37.6h-0.553c-5.74-10.8-4.66-28 3.32-37.6m81.8 0v0.553l-27.6 0.553c7.44-3.34 19.6-1.11 27.6-1.11m1.11 0-0.553 0.553 0.553-0.553m2.21 0-0.553 0.553 0.553-0.553m1.11 0-0.553 0.553 0.553-0.553m2.21 1.11-1.66-0.553 1.66 0.553m57.5-0.553 0.553 0.553-0.553-0.553m88.6 0.369 0.185 0.368-0.185-0.368m-221 0.184-0.553 1.66 0.553-1.66m86.8 0 0.553 0.553-0.553-0.553m-94 0.553-3.32 22.1c-1.81-1.28-2.31-3.99-0.553-5.53-1.25-5.24 0.727-12.2 3.87-16.6m90.1 0-0.553 0.553 0.553-0.553m1.11 0-0.553 0.553 0.553-0.553m-134 0.553 0.553 0.553-0.553-0.553m106 1.11v0.553h2.21l-2.21-0.553m212 0 0.553 0.553-0.553-0.553m3.13 0.184 0.368 0.185-0.368-0.185m-328 0.921v0.553l17.7-0.553h-17.7m75.2-0.553 0.553 0.553-0.553-0.553m1.66 0 0.553 0.553-0.553-0.553m117 0v1.66h0.553l-0.553-1.66m123 0.184 0.368 0.185-0.368-0.185m-319 0.553 0.368 0.185-0.368-0.185m1.84-0.184 0.553 0.553-0.553-0.553m309 0 0.553 0.553-0.553-0.553m-256 0.921 0.185 0.368-0.185-0.368m59.9 0.368 0.368 0.185-0.368-0.185m1.29-0.184v0.553h1.66l-1.66-0.553m-60.6 1.47 0.185 0.368-0.185-0.368m163-0.369 0.553 0.553-0.553-0.553m63.6 0 0.553 0.553-0.553-0.553m-62.5 0.553v1.66h0.553l-0.553-1.66m-17.1 1.11 1.66 6.63-3.87-0.553 0.553-5.53h-0.553l-1.66 1.11v19.9h0.553l1.11-14.4h3.87l0.553 4.97h0.553v-1.66h0.553l0.553 2.76h0.553l-4.42-13.3m-147 1.11 0.553 0.553-0.553-0.553m156 0 4.42 16.6h0.553c-0.0132-4.74-0.653-13.7-4.97-16.6m7.74 0v1.66h0.553l-0.553-1.66m-163 1.47 0.185 0.368-0.185-0.368m177-0.185c0.427 0 0.0884 0.275-0.184 0.185l0.184-0.185m-166 0.921 1.11 1.11-1.11-1.11m173 0.921 0.185 0.368-0.185-0.368m-178 0.184 2.21 10.5h-0.553l-1.66-10.5m153 0 0.553 0.553-0.553-0.553m-147 0.553 0.553 0.553-0.553-0.553m143 0 1.11 4.97h0.553l-1.66-4.97m-3.68 0.921 0.185 0.368-0.185-0.368m11.4 0.184 1.11 6.63h0.553l-1.66-6.63m18.4 0.921 0.185 0.368-0.185-0.368m3.13-0.369v2.21h0.553l-0.553-2.21m-32.6 0.553-0.553 9.95h0.553v-9.95m54.2 0 0.553 45.9h0.553v-1.66h0.553l-0.553 14.9h-0.553c-1.99-9.65-2.39-17.3-0.553-27.1h-0.553v1.11h-0.553l0.119-23.3 0.986-9.9m-24.3 1.11 0.553 5.53h0.553l-1.11-5.53m-40.2 0.921 0.185 0.368-0.185-0.368m12.5 0.184 0.553 0.553-0.553-0.553m31.1 1.47 0.185 0.368-0.185-0.368m-88.1 0.184 0.553 0.553-0.553-0.553m-94.5 0.553 0.553 0.553-0.553-0.553m95.1 0.553 5.19 24.3-0.0387 7.18 4.8 11.6 1.11-0.553v14.4h-0.553l-0.553-1.66h-0.553c-0.452 3.85 1.61 5.79 2.11 9.4 0.474 3.46-0.719 7.13-0.181 10.5 0.894 5.6 6.74 9.82 11.3 12.2l-10.5-12.7 1.66-3.87 1.11-3.87-2.66-7.18 0.949-13.3-1.61-8.84h0.553l1.66 5.53h0.553l0.553-1.11 3.32 10.5h0.553l-4.97-13.8 3.87 4.97c0.0253-3.39-2.39-8.13-6.08-8.29l-0.553-2.21h-0.553l0.553 4.42h-0.553l-3.87-13.8h0.553l2.76 8.84h0.553l-6.62-21-3.88-11.6m56.9 0c0.428 5.42 5 19.8-0.553 23.2v0.553h2.21l-0.553 1.66h0.553l2.21-14.4h0.553l1.66 6.08c-0.591-3.17-0.548-7.87-3.32-9.95v3.87h-0.553c-0.0282-3.42-0.0422-8.3-2.21-11.1m23.2 0 0.553 0.553-0.553-0.553m-29.3 0.553 0.553 2.21h0.553v-2.21h-1.11m-145 0.553 0.553 0.553-0.553-0.553m161 0v9.4h0.553l-0.553-9.4m-169 0.553 1.11 2.21h0.553l-1.66-2.21m8.47 1.47 0.185 0.368-0.185-0.368m137-0.369 1.11 2.21-1.11-2.21m-149 0.553c2.74 2.9 1.89 11.4 2.21 15.5h-0.553c-1.29-4.72-3.69-10.6-1.66-15.5m17.1 0-0.553 0.553 0.553-0.553m171 0c4.8e-4 6.36 0.863 13.1 3.87 18.8h0.553l-1.66-14.4h-0.553l-0.553 1.66h-0.553l-1.11-6.08m-176 1.11 0.553 0.553-0.553-0.553m-6.63 0.553 1.11 1.11-1.11-1.11m194 0 0.553 0.553-0.553-0.553m-196 1.11 6.63 7.18c5.59 0.954 11.3 10.6 13.5 15.5 6.98 15.7 9.49 38.2 1.98 54.2h-0.553l-7.74-28.7c-2.86-0.376-5.31-8.41-6.24-11.1-2.97-8.49-6.24-16.4-7.71-25.4-0.539-3.28-1.33-8.57 0.133-11.6m9.58 0.369 0.185 0.368-0.185-0.368m177-0.369 0.553 0.553-0.553-0.553m-182 1.11 0.553 0.553-0.553-0.553m224 0 0.553 0.553-0.553-0.553m-218 0.921 0.185 0.368-0.185-0.368m-15.7 0.184 3.32 19.3h-0.553c-3.79-6.19-3.87-12.3-3.87-19.3h1.11m192 1.47-0.185 0.368 0.185-0.368m41.6-0.369 0.553 0.553-0.553-0.553m-218 0.553 0.553 0.553-0.553-0.553m136 0.553v1.66h0.553l-0.553-1.66m24.9 0-3.32 11.6h0.553c1.72-3.02 4.16-8.17 2.76-11.6m56.4 0v16.6h0.553c0.829-4.46 1.82-12.6-0.553-16.6m-43.7 1.66 0.553 0.553-0.553-0.553m-37.6 0.553v0.553l2.76 1.66-2.76-2.21m-128 0.553c6.11 8.99 10.5 15.3 10.5 26.5h-0.553l-6.77-17.7-3.18-8.84m176 0-3.87 6.63c1.94-1.52 4.25-4.03 3.87-6.63m-187 0.553 0.553 0.553-0.553-0.553m176 0.921 0.185 0.368-0.185-0.368m-176 0.184 0.553 0.553-0.553-0.553m117 0 4.97 17.7h-0.553c-2.03-5.24-6.37-11.9-4.42-17.7m62.5 0-0.553 0.553 0.553-0.553m-37.6 0.553c0.717 4.61 5.89 5.73 9.95 6.08v-0.553l-9.95-5.53m-141 0.921 0.185 0.368-0.185-0.368m98.2 0.737-0.553 0.553 0.553-0.553m-109 0.553 8.84 25.4h-0.553c-3.07-6.57-10.6-17.8-8.29-25.4m11.6 0 0.553 0.553-0.553-0.553m145 0.553 0.553 0.553-0.553-0.553m9.4 2.21 3.32-2.21-3.32 2.21m-154-1.66 0.553 2.21h0.553l-1.11-2.21m115 0.369 0.185 0.368-0.185-0.368m55.6-0.369 0.553 1.11h-1.11l0.553-1.11m33.2 0v4.97h0.553l-0.553-4.97m-200 2.03 0.185 0.368-0.185-0.368m112 0 0.185 0.368-0.185-0.368m-115 0.737 1.11 3.32h0.553l-1.66-3.32m3.32 1.11v1.66h0.553l-0.553-1.66m-1.66 2.76 0.553 2.21h0.553l-1.11-2.21m2.21 1.11v2.76h-0.553v-1.11h-0.553l7.74 22.1h0.553l-7.18-23.8m-17.7 2.21c4.24 6.43 8.16 15.7 9.95 23.2h-0.553c-2.5-5.81-11.3-16.7-9.4-23.2m233 0 0.903 7.18-3.67 9.95 1.66-1.11c0.015 5.56 1.48 11.3 3.18 16.6 0.755 2.36 3.06 5.79 2.67 8.29-0.566 3.59-4.76 6.42-7.5 8.29v0.553l3.32-1.11-2.21 2.76c2.9-2.08 7.25-6.68 7.47-10.5 0.448-7.74-7.9-15.8-4.7-23.8l-1.66 0.553 2.21-8.84h0.553v5.53h0.553c1.3-4.45-0.538-10.4-2.76-14.4m-19.9 0.553-0.553 0.553 0.553-0.553m-101 0.553v2.21h-0.553l0.553-2.21m16.6 2.21 1.11 18.8h0.553c0.721-5.7 2.02-13.9-1.66-18.8m-95.1 0.553 0.553 0.553-0.553-0.553m191 0v4.97h0.553l-0.553-4.97m-191 1.11 0.553 0.553-0.553-0.553m-24.9 0.553v2.21h0.553l-0.553-2.21m25.4 0.553 0.553 0.553-0.553-0.553m177 0v18.8h-0.553c-1.41-5.44-2.49-13.7 0.553-18.8m-194 1.11 0.553 0.553-0.553-0.553m101 0 1.11 2.21-1.11-2.21m-82.9 2.21 0.553 0.553-0.553-0.553m189 0.553 0.553 0.553-0.553-0.553m0 1.66 0.553 0.553-0.553-0.553m-218 0.553 2.76 7.18 4.27 4.97 5.68 16h-0.553l-8.86-19.3-3.3-8.84m127 0.553v1.66h-0.553l0.553-1.66m80.1 0v3.32h0.553l-0.553-3.32m10.5 0 0.553 10.5h0.553v-10.5h-1.11m-207 2.58 0.185 0.368-0.185-0.368m106-0.369-0.553 1.11 0.553-1.11m-6.08 1.11v7.74h-0.553l0.553-7.74m-100 0.553 0.553 0.553-0.553-0.553m-0.369 5.34 0.185 0.368-0.185-0.368m7.55 0.184 0.553 2.76h0.553l-1.11-2.76m-17.7 0.553 0.553 0.553-0.553-0.553m0.553 1.11 0.553 0.553-0.553-0.553m117 0.553v3.32h0.553l-0.553-3.32m89 0c2.39 5.86 0.773 11 0 17.1h-0.553l0.553-17.1m-205 1.11 0.553 0.553-0.553-0.553m17.9 0.369 0.185 0.368-0.185-0.368m0.369 1.29v1.66h0.553l-0.553-1.66m196 0.553v4.97h-0.553v-3.32c-2.65 2.32 0.388 10.8-0.0732 14.4-0.362 2.8-2.45 5.04-3.24 7.74l3.87-3.32-3.32 4.42v0.553l5.53-0.553-0.553-1.66h3.32v-0.553c-7.43-5.37-1.95-15.4-4.97-22.7m-97.8 1.11 0.553 0.553-0.553-0.553m-97.1 0.921 0.185 0.368-0.185-0.368m88.2-0.369 0.553 1.11-0.553-1.11m101 1.11-1.11 7.18h-0.553l1.66-7.18m-189 0.553v1.66h0.553l-0.553-1.66m0.737 2.58 0.185 0.368-0.185-0.368m110 2.39 0.737 11.1-0.185 6.08v0.553l-1.11 3.32c-6.59-1.57-6.08-14.2-6.08-19.9h-0.553v18.8h0.553l0.553-1.11 5.53 3.87 3.32-4.42-2.21 1.66 2.76-8.84h-0.553l-0.553 4.97h-0.553c0.951-5.12 1.87-11.8-1.66-16m-76.3 4.97 2.76 19.3-2.76-1.11-0.553 6.08h1.11l-0.553-4.97 2.76 3.32 1.66-2.76-1.11-2.21 3.87 3.87-2.21-9.95c-2.15 0-3.48-7.82-3.87-9.95h0.553v1.11h0.553l-1.11-2.76h-1.11m-30.9 2.76 0.553 0.553-0.553-0.553m33.2 0.553 1.66 6.63h0.553l-2.21-6.63m-33.2 0.553-0.553 6.08h0.553v-6.08m24.9 21.6c4.71-1.39 4.87-7.7 1.54-10.8-1.9-1.74-5.32-2.61-6.65-4.89-1.65-2.82 2.94-3.12 4.56-3.14-2.41-1.82-7.7-0.688-6.29 3.26 1.69 4.74 12.2 5.14 8.96 12.2-0.541 1.17-1.42 2.24-2.12 3.32m-35.4-18.8 0.553 0.553-0.553-0.553m213 0.553-0.553 0.553 0.553-0.553m-213 0.921 0.185 0.368-0.185-0.368m-10.7 1.84 0.553 0.553-0.553-0.553m56.4 0.553 0.553 0.553-0.553-0.553m-56.4 1.11 0.553 0.553-0.553-0.553m10.7 0.921 0.185 0.368-0.185-0.368m-0.184 1.29 0.553 0.553-0.553-0.553m0.184 4.24 0.185 0.368-0.185-0.368m-0.737 2.95 0.553 0.553-0.553-0.553m7.74 27.6 0.553 0.553-0.553-0.553m-0.553 1.11v1.66h0.553z"
      />
    </g>
  </symbol>
</svg>
