<?xml version="1.0" encoding="UTF-8"?>

<svg version="1.1">
  <!--main logo-->
  <symbol  xmlns="http://www.w3.org/2000/svg" viewBox="0 0 152.35 143.74" id="icon-logo">
    <g transform="translate(-32.882 -133.08)">
      <path d="m181.17 245.31-35.745 26.329c-4.6831 3.4634-10.478 5.3684-16.536 5.3684h-91.81c-2.3148 0-3.9952-1.9172-3.9952-4.2307v-25.397c0-2.3146 1.9182-4.2386 3.9952-4.2386l14.65 6e-3 12.303-9.9854c5.3181-4.2595 12.467-6.945 19.611-6.945h42.095c5.1594 0 9.226 4.5958 8.3661 9.8875-0.69453 4.1672-4.5958 7.0432-8.8292 7.0432h-20.463c-2.3148 0-3.9952 1.918-3.9952 3.9952 0 2.0772 1.9182 3.9952 3.9952 3.9952h31.909l31.671-23.328c4.7096-3.4898 11.327-2.4717 14.798 2.2402 3.6962 5.1803 2.6908 11.795-2.0188 15.261z"></path>
      <path d="m106 133.08a44.526 43.709 0 0 1 44.526 43.709 44.526 43.709 0 0 1-44.526 43.709 44.526 43.709 0 0 1-44.526-43.709 44.526 43.709 0 0 1 44.526-43.709m0 8.7418a11.131 10.927 0 0 0-11.131 10.927 11.131 10.927 0 0 0 11.131 10.927 11.131 10.927 0 0 0 11.131-10.927 11.131 10.927 0 0 0-11.131-10.927m-33.84 24.171c-1.9146 5.7259 1.2908 11.889 7.1241 13.769 5.8774 1.8357 12.156-1.2671 14.026-7.0372 1.9146-5.726-1.2908-11.889-7.1241-13.769-5.833-1.8357-12.155 1.2671-14.026 7.0372m67.724-0.13216c-1.9146-5.6385-8.1927-8.7418-14.025-6.9061-5.8774 1.8359-9.0832 7.9989-7.1686 13.769 1.9146 5.7259 8.1927 8.8729 14.025 6.9934 5.833-1.8357 9.0388-8.0425 7.1686-13.856m-54.767 39.164c4.9424 3.5842 11.977 2.4914 15.539-2.404 3.6067-4.8954 2.4935-11.714-2.4933-15.255-4.9424-3.5404-11.933-2.4476-15.54 2.404-3.6065 4.8956-2.4935 11.714 2.4935 15.255m41.81 0c4.9868-3.5404 6.0999-10.359 2.4933-15.255-3.6066-4.8954-10.597-5.9882-15.539-2.404-4.987 3.5406-6.1 10.359-2.4935 15.255 3.5175 4.8954 10.597 5.9444 15.54 2.404m-20.927-34.793a6.6789 6.5564 0 0 0-6.6788 6.5563 6.6789 6.5564 0 0 0 6.6788 6.5565 6.6789 6.5564 0 0 0 6.6789-6.5565 6.6789 6.5564 0 0 0-6.6789-6.5563z"></path>
    </g>
  </symbol>

<!--theme switcher icon-->
  <symbol  xmlns="http://www.w3.org/2000/svg" viewBox="0 0 512 512" id="icon-theme-switcher">
    <path d="M256 0C114.6 0 0 114.6 0 256s114.6 256 256 256s256-114.6 256-256S397.4 0 256 0zM256 448V64c105.9 0 192 86.13 192 192S361.9 448 256 448z"></path>
  </symbol>

<!--miscellaneous logos-->
  <symbol  xmlns="http://www.w3.org/2000/svg" viewBox="0 0 640 512" id="icon-eye-slash">
    <path d="M320 400c-75.85 0-137.25-58.71-142.9-133.11L72.2 185.82c-13.79 17.3-26.48 35.59-36.72 55.59a32.35 32.35 0 0 0 0 29.19C89.71 376.41 197.07 448 320 448c26.91 0 52.87-4 77.89-10.46L346 397.39a144.13 144.13 0 0 1-26 2.61zm313.82 58.1l-110.55-85.44a331.25 331.25 0 0 0 81.25-102.07 32.35 32.35 0 0 0 0-29.19C550.29 135.59 442.93 64 320 64a308.15 308.15 0 0 0-147.32 37.7L45.46 3.37A16 16 0 0 0 23 6.18L3.37 31.45A16 16 0 0 0 6.18 53.9l588.36 454.73a16 16 0 0 0 22.46-2.81l19.64-25.27a16 16 0 0 0-2.82-22.45zm-183.72-142l-39.3-30.38A94.75 94.75 0 0 0 416 256a94.76 94.76 0 0 0-121.31-92.21A47.65 47.65 0 0 1 304 192a46.64 46.64 0 0 1-1.54 10l-73.61-56.89A142.31 142.31 0 0 1 320 112a143.92 143.92 0 0 1 144 144c0 21.63-5.29 41.79-13.9 60.11z"></path>
  </symbol>

  <symbol  xmlns="http://www.w3.org/2000/svg" viewBox="0 0 512 512" id="icon-graph-rising">
    <path d="M472 432h-48a24 24 0 01-24-24V104a24 24 0 0124-24h48a24 24 0 0124 24v304a24 24 0 01-24 24zM344 432h-48a24 24 0 01-24-24V184a24 24 0 0124-24h48a24 24 0 0124 24v224a24 24 0 01-24 24zM216 432h-48a24 24 0 01-24-24V248a24 24 0 0124-24h48a24 24 0 0124 24v160a24 24 0 01-24 24zM88 432H40a24 24 0 01-24-24v-96a24 24 0 0124-24h48a24 24 0 0124 24v96a24 24 0 01-24 24z"></path>
  </symbol>
  <symbol  xmlns="http://www.w3.org/2000/svg" viewBox="0 0 576 512" id="icon-rating">
    <path d="M259.3 17.8L194 150.2 47.9 171.5c-26.2 3.8-36.7 36.1-17.7 54.6l105.7 103-25 145.5c-4.5 26.3 23.2 46 46.4 33.7L288 439.6l130.7 68.7c23.2 12.2 50.9-7.4 46.4-33.7l-25-145.5 105.7-103c19-18.5 8.5-50.8-17.7-54.6L382 150.2 316.7 17.8c-11.7-23.6-45.6-23.9-57.4 0z"></path>
  </symbol>
  <symbol  xmlns="http://www.w3.org/2000/svg" viewBox="0 0 24 24" id="icon-like-dislike">
    <path d="M22.5,10H15.75C15.13,10 14.6,10.38 14.37,10.91L12.11,16.2C12.04,16.37 12,16.56 12,16.75V18A1,1 0 0,0 13,19H18.18L17.5,22.18V22.42C17.5,22.73 17.63,23 17.83,23.22L18.62,24L23.56,19.06C23.83,18.79 24,18.41 24,18V11.5A1.5,1.5 0 0,0 22.5,10M12,6A1,1 0 0,0 11,5H5.82L6.5,1.82V1.59C6.5,1.28 6.37,1 6.17,0.79L5.38,0L0.44,4.94C0.17,5.21 0,5.59 0,6V12.5A1.5,1.5 0 0,0 1.5,14H8.25C8.87,14 9.4,13.62 9.63,13.09L11.89,7.8C11.96,7.63 12,7.44 12,7.25V6Z"></path>
  </symbol>
  <symbol  xmlns="http://www.w3.org/2000/svg"  viewBox="0 0 24 24" id="icon-image-slash">
    <path d="M21 17.2L6.8 3H19C20.1 3 21 3.9 21 5V17.2M20.7 22L19.7 21H5C3.9 21 3 20.1 3 19V4.3L2 3.3L3.3 2L22 20.7L20.7 22M16.8 18L12.9 14.1L11 16.5L8.5 13.5L5 18H16.8Z"></path>
  </symbol>
  <symbol  xmlns="http://www.w3.org/2000/svg"  viewBox="0 0 24 24" id="icon-palette">
    <path d="M2.53,19.65L3.87,20.21V11.18L1.44,17.04C1.03,18.06 1.5,19.23 2.53,19.65M22.03,15.95L17.07,4C16.76,3.23 16.03,2.77 15.26,2.75C15,2.75 14.73,2.79 14.47,2.9L7.1,5.95C6.35,6.26 5.89,7 5.87,7.75C5.86,8 5.91,8.29 6,8.55L11,20.5C11.29,21.28 12.03,21.74 12.81,21.75C13.07,21.75 13.33,21.7 13.58,21.6L20.94,18.55C21.96,18.13 22.45,16.96 22.03,15.95M7.88,8.75A1,1 0 0,1 6.88,7.75A1,1 0 0,1 7.88,6.75C8.43,6.75 8.88,7.2 8.88,7.75C8.88,8.3 8.43,8.75 7.88,8.75M5.88,19.75A2,2 0 0,0 7.88,21.75H9.33L5.88,13.41V19.75Z"></path>
  </symbol>
  <symbol  xmlns="http://www.w3.org/2000/svg"  viewBox="0 0 24 24" id="icon-responsive">
    <path d="M4,6V16H9V12A2,2 0 0,1 11,10H16A2,2 0 0,1 18,12V16H20V6H4M0,20V18H4A2,2 0 0,1 2,16V6A2,2 0 0,1 4,4H20A2,2 0 0,1 22,6V16A2,2 0 0,1 20,18H24V20H18V20C18,21.11 17.1,22 16,22H11A2,2 0 0,1 9,20H9L0,20M11.5,20A0.5,0.5 0 0,0 11,20.5A0.5,0.5 0 0,0 11.5,21A0.5,0.5 0 0,0 12,20.5A0.5,0.5 0 0,0 11.5,20M15.5,20A0.5,0.5 0 0,0 15,20.5A0.5,0.5 0 0,0 15.5,21A0.5,0.5 0 0,0 16,20.5A0.5,0.5 0 0,0 15.5,20M13,20V21H14V20H13M11,12V19H16V12H11Z"></path>
  </symbol>
  <symbol  xmlns="http://www.w3.org/2000/svg"  viewBox="0 0 24 24" id="icon-search">
    <path d="M9.5,3A6.5,6.5 0 0,1 16,9.5C16,11.11 15.41,12.59 14.44,13.73L14.71,14H15.5L20.5,19L19,20.5L14,15.5V14.71L13.73,14.44C12.59,15.41 11.11,16 9.5,16A6.5,6.5 0 0,1 3,9.5A6.5,6.5 0 0,1 9.5,3M9.5,5C7,5 5,7 5,9.5C5,12 7,14 9.5,14C12,14 14,12 14,9.5C14,7 12,5 9.5,5Z"></path>
  </symbol>
  <symbol  xmlns="http://www.w3.org/2000/svg"  viewBox="0 0 24 24" id="icon-external-link">
    <path d="M14,3V5H17.59L7.76,14.83L9.17,16.24L19,6.41V10H21V3M19,19H5V5H12V3H5C3.89,3 3,3.9 3,5V19A2,2 0 0,0 5,21H19A2,2 0 0,0 21,19V12H19V19Z"></path>
  </symbol>
</svg>